<svg width="60" height="60" viewBox="0 0 60 60" fill="none" xmlns="http://www.w3.org/2000/svg">
<path d="M13.1847 25.2229C20.1498 25.2229 25.7962 19.5766 25.7962 12.6115C25.7962 5.64635 20.1498 0 13.1847 0C6.21959 0 0.573242 5.64635 0.573242 12.6115C0.573242 19.5766 6.21959 25.2229 13.1847 25.2229Z" fill="#1393F4"/>
<path d="M25.414 34.5861V59.809H0C0 45.8599 11.2739 34.5861 25.2229 34.5861H25.414Z" fill="#1393F4"/>
<path d="M47.3886 1.91083C53.3121 1.91083 58.0892 6.6879 58.0892 12.6115C58.0892 18.535 53.3121 23.3121 47.3886 23.3121C41.465 23.3121 36.6879 18.535 36.6879 12.6115C36.6879 6.6879 41.6561 1.91083 47.3886 1.91083ZM47.3886 0C40.5096 0 34.7771 5.5414 34.7771 12.6115C34.7771 19.4904 40.3185 25.2229 47.3886 25.2229C54.4586 25.2229 60 19.6815 60 12.6115C60 5.5414 54.4586 0 47.3886 0Z" fill="white"/>
<path d="M47.3886 60C54.3537 60 60 54.3536 60 47.3885C60 40.4234 54.3537 34.777 47.3886 34.777C40.4234 34.777 34.7771 40.4234 34.7771 47.3885C34.7771 54.3536 40.4234 60 47.3886 60Z" fill="#1393F4"/>
</svg>
