<svg width="1920" height="600" viewBox="0 0 1920 600" fill="none" xmlns="http://www.w3.org/2000/svg">
<g opacity="0.86">
<mask id="mask0" mask-type="alpha" maskUnits="userSpaceOnUse" x="0" y="0" width="1920" height="600">
<rect width="1920" height="600" fill="white"/>
</mask>
<g mask="url(#mask0)">
<path d="M1924 62.4094C1873.44 121.93 1828.46 172.458 1788.18 218.276C1788.61 219.132 1789.04 219.56 1789.9 220.417C1831.03 281.65 1876.87 346.309 1924 410.539V872.144H-4V-293H230.359C277.916 -198.795 339.612 -67.3365 385.028 61.9812C391.026 53.8453 397.024 46.1376 402.594 38.0017C493.424 -103.734 530.27 -215.067 543.98 -293H1923.57V62.4094H1924Z" fill="url(#paint0_linear)"/>
<path d="M941.149 586.103C935.579 663.608 950.146 735.975 968.569 793.782C924.011 831.036 883.737 855.872 852.032 872.144C851.604 872.572 851.175 872.572 850.318 873C849.89 872.572 849.89 872.572 849.461 872.144H-4V-293H853.317C870.455 -270.305 894.02 -239.903 920.155 -205.646C983.136 -123.003 1063.26 -18.5212 1115.95 51.7043C1139.52 82.535 1157.51 106.943 1166.94 119.361C1177.65 133.919 1189.22 152.332 1200.36 173.742C1155.37 225.983 1114.67 266.663 1094.96 291.499C1058.97 332.178 956.144 427.239 941.149 586.103Z" fill="url(#paint1_linear)"/>
<path d="M1394.01 -293H977.994C966.426 -269.449 948.432 -239.903 920.154 -205.646C882.88 -159.829 827.182 -105.018 744.492 -43.7853C481.427 151.476 587.681 380.565 614.673 487.616C615.102 488.473 615.102 489.329 615.53 490.185C616.387 492.326 616.816 494.467 617.673 496.608C656.233 610.939 727.354 764.236 849.889 872.572C850.318 873 850.318 873 850.746 873.428C851.175 873 851.603 873 852.46 872.572H999.845C989.991 851.161 978.851 824.613 968.568 794.21C949.717 736.403 935.578 664.036 941.148 586.531C955.715 427.239 1058.97 332.178 1094.96 292.355C1114.67 267.519 1155.37 226.84 1200.36 174.599C1298.04 61.1247 1416.29 -107.159 1394.01 -293ZM1924 -293H1573.53C1506.69 -219.349 1428.29 -110.585 1411.58 7.17102C1381.16 221.273 1484.84 497.893 1454.42 658.47C1440.29 733.833 1408.58 809.626 1368.74 872.144H1924V67.1196C1874.3 125.355 1829.31 175.455 1789.9 220.417C1789.47 219.56 1789.04 219.132 1788.18 218.276C1828.46 172.458 1873.44 121.93 1924 62.4094V-293Z" fill="url(#paint2_linear)"/>
<path d="M1454.42 658.47C1440.29 733.833 1408.58 809.626 1368.74 872.144H999.845C989.991 850.733 978.852 824.185 968.569 793.782C1041.4 733.405 1125.81 641.341 1202.5 501.319C1241.06 426.811 1247.91 357.014 1239.77 296.209V295.781C1234.63 257.242 1223.06 222.558 1209.35 192.583C1206.36 186.16 1203.36 179.737 1200.36 173.742C1298.04 61.1248 1416.29 -107.159 1394.01 -293H1573.53C1506.7 -219.349 1428.29 -110.585 1411.58 7.17102C1381.16 221.273 1484.84 497.893 1454.42 658.47Z" fill="url(#paint3_linear)"/>
<path d="M1205.07 517.591C1128.38 657.185 1041.83 733.834 968.997 793.782C950.146 735.975 936.007 663.608 941.577 586.103C956.144 426.811 1059.4 331.75 1095.39 291.927C1115.1 267.091 1155.8 226.412 1200.79 174.171C1240.2 250.819 1273.19 385.276 1205.07 517.591Z" fill="url(#paint4_linear)"/>
<path d="M544.409 -293C530.698 -215.067 493.852 -103.734 403.022 38.0017C397.024 46.1376 391.454 54.2735 385.456 61.9812C340.041 -67.3365 278.345 -198.795 230.359 -293H544.409Z" fill="url(#paint5_linear)"/>
<path d="M849.89 872.144H446.295C449.294 767.234 472.858 647.765 550.407 561.696C568.83 541.142 588.539 521.873 609.104 503.46C611.674 500.891 614.674 498.75 617.673 496.18C656.233 610.511 726.926 763.808 849.89 872.144Z" fill="url(#paint6_linear)"/>
<path d="M1200.79 174.171C1155.8 226.412 1115.1 267.091 1095.39 291.927C1059.4 332.178 956.144 427.24 941.577 586.103C936.007 663.608 950.574 735.975 968.997 793.782C978.851 824.613 989.991 851.162 1000.27 872.144H852.889C852.46 872.572 852.032 872.572 851.175 873C850.746 872.572 850.746 872.572 850.318 872.144C727.354 763.808 656.661 610.511 618.101 496.18C786.908 349.734 1024.69 242.255 1107.81 72.2582C1111.24 65.4069 1114.24 58.5556 1116.81 51.7043C1162.65 -64.7672 1129.66 -202.649 1096.24 -293.428H1394.87C1416.29 -107.159 1298.04 61.1248 1200.79 174.171Z" fill="url(#paint7_linear)"/>
<path d="M1924 -293H1573.53C1506.7 -219.349 1428.29 -110.585 1411.58 7.17102C1381.16 221.273 1484.84 497.893 1454.42 658.47C1440.29 733.833 1408.58 809.626 1368.74 872.144H1924V67.1196C1874.3 125.355 1829.31 175.455 1789.9 220.417C1789.47 219.56 1789.04 219.132 1788.18 218.276C1828.46 172.458 1873.44 121.93 1924 62.4094V-293Z" fill="url(#paint8_linear)"/>
<path d="M1789.6 224.105C1790.04 224.971 1790.47 225.404 1791.34 226.269C1790.91 226.702 1790.47 227.567 1789.6 228C1747.13 165.255 1710.29 105.539 1682.98 53.6121C1619.27 -72.3107 1619.27 -193.041 1637.47 -286.076C1637.91 -288.24 1638.34 -290.836 1638.77 -293H1927V66.1611C1875.86 126.31 1830.35 177.804 1789.6 224.105Z" fill="url(#paint9_linear)"/>
<path d="M1924 69V414C1876.73 349.606 1830.31 284.785 1789 223.376C1789.43 222.949 1789.85 222.096 1790.7 221.67C1829.88 176.466 1874.6 126.998 1924 69Z" fill="url(#paint10_linear)"/>
<path d="M1923.57 872H1535.87C1532.03 788.203 1540.15 683.029 1574.77 558.616C1614.95 429.072 1684.63 341.855 1788.5 223C1829.96 284.565 1876.55 349.551 1924 414.109V872H1923.57Z" fill="url(#paint11_linear)"/>
<path d="M331.044 872.144H-4V540.714C106.11 359.583 262.921 225.555 385.456 61.9812C421.445 165.178 447.152 267.091 447.152 348.878C454.864 569.831 375.602 774.941 331.044 872.144Z" fill="url(#paint12_linear)"/>
<path d="M385.456 61.9812C262.921 225.555 106.11 359.583 -4 540.714V-293H230.359C278.345 -198.795 340.041 -67.3365 385.456 61.9812Z" fill="url(#paint13_linear)"/>
</g>
</g>
<g opacity="0.94" filter="url(#filter0_b)">
<rect width="709" height="600" transform="matrix(-1 0 0 1 1920 0)" fill="white" fill-opacity="0.1"/>
</g>
<rect opacity="0.21" width="1" height="600" transform="matrix(-1 0 0 1 1171 0)" fill="white"/>
<rect opacity="0.21" width="1" height="600" transform="matrix(-1 0 0 1 305 0)" fill="white"/>
<rect opacity="0.21" width="1" height="600" transform="matrix(-1 0 0 1 585 0)" fill="white"/>
<g opacity="0.94" filter="url(#filter1_b)">
<rect width="200" height="600" transform="matrix(-1 0 0 1 525 0)" fill="white" fill-opacity="0.1"/>
</g>
<g opacity="0.94" filter="url(#filter2_b)">
<rect width="123" height="600" transform="matrix(-1 0 0 1 728 0)" fill="white" fill-opacity="0.1"/>
</g>
<defs>
<filter id="filter0_b" x="1171" y="-40" width="789" height="680" filterUnits="userSpaceOnUse" color-interpolation-filters="sRGB">
<feFlood flood-opacity="0" result="BackgroundImageFix"/>
<feGaussianBlur in="BackgroundImage" stdDeviation="20"/>
<feComposite in2="SourceAlpha" operator="in" result="effect1_backgroundBlur"/>
<feBlend mode="normal" in="SourceGraphic" in2="effect1_backgroundBlur" result="shape"/>
</filter>
<filter id="filter1_b" x="285" y="-40" width="280" height="680" filterUnits="userSpaceOnUse" color-interpolation-filters="sRGB">
<feFlood flood-opacity="0" result="BackgroundImageFix"/>
<feGaussianBlur in="BackgroundImage" stdDeviation="20"/>
<feComposite in2="SourceAlpha" operator="in" result="effect1_backgroundBlur"/>
<feBlend mode="normal" in="SourceGraphic" in2="effect1_backgroundBlur" result="shape"/>
</filter>
<filter id="filter2_b" x="565" y="-40" width="203" height="680" filterUnits="userSpaceOnUse" color-interpolation-filters="sRGB">
<feFlood flood-opacity="0" result="BackgroundImageFix"/>
<feGaussianBlur in="BackgroundImage" stdDeviation="20"/>
<feComposite in2="SourceAlpha" operator="in" result="effect1_backgroundBlur"/>
<feBlend mode="normal" in="SourceGraphic" in2="effect1_backgroundBlur" result="shape"/>
</filter>
<linearGradient id="paint0_linear" x1="-4" y1="289.654" x2="1924" y2="289.654" gradientUnits="userSpaceOnUse">
<stop stop-color="#009DFF"/>
<stop offset="0.3907" stop-color="#138FF0"/>
<stop offset="0.4415" stop-color="#2783E5"/>
<stop offset="0.5444" stop-color="#5965C7"/>
<stop offset="0.6192" stop-color="#814DB0"/>
<stop offset="0.7842" stop-color="#E60074"/>
</linearGradient>
<linearGradient id="paint1_linear" x1="-4" y1="290.056" x2="1200.61" y2="290.056" gradientUnits="userSpaceOnUse">
<stop stop-color="#42AEEA"/>
<stop offset="0.291" stop-color="#57A3EF"/>
<stop offset="0.4031" stop-color="#4EB0EB"/>
<stop offset="0.6093" stop-color="#3FC3E4"/>
<stop offset="1" stop-color="#13EDD3"/>
</linearGradient>
<linearGradient id="paint2_linear" x1="570.715" y1="290.056" x2="1924" y2="290.056" gradientUnits="userSpaceOnUse">
<stop stop-color="#E40074"/>
<stop offset="0.291" stop-color="#CA1880"/>
<stop offset="0.3037" stop-color="#C61B83"/>
<stop offset="0.4647" stop-color="#933FA2"/>
<stop offset="0.544" stop-color="#804DAE"/>
<stop offset="0.5452" stop-color="#7F4DAE"/>
<stop offset="0.6" stop-color="#5E61C2"/>
<stop offset="0.6584" stop-color="#4371D2"/>
<stop offset="0.7219" stop-color="#2E7DDE"/>
<stop offset="0.7924" stop-color="#1F86E7"/>
<stop offset="0.875" stop-color="#168BEC"/>
<stop offset="1" stop-color="#138DEE"/>
</linearGradient>
<linearGradient id="paint3_linear" x1="1080.25" y1="624.51" x2="1827.15" y2="-206.662" gradientUnits="userSpaceOnUse">
<stop stop-color="#E40074"/>
<stop offset="0.291" stop-color="#CA1880"/>
<stop offset="0.3037" stop-color="#C61B83"/>
<stop offset="0.4647" stop-color="#933FA2"/>
<stop offset="0.544" stop-color="#804DAE"/>
</linearGradient>
<linearGradient id="paint4_linear" x1="940.035" y1="483.973" x2="1244.49" y2="483.973" gradientUnits="userSpaceOnUse">
<stop stop-color="#3FE7FF"/>
<stop offset="0.1671" stop-color="#46D4FA"/>
<stop offset="0.5064" stop-color="#57A1ED"/>
<stop offset="0.508" stop-color="#57A1ED"/>
<stop offset="1" stop-color="#787EFF"/>
</linearGradient>
<linearGradient id="paint5_linear" x1="228.709" y1="-59.616" x2="485.193" y2="-240.397" gradientUnits="userSpaceOnUse">
<stop stop-color="#3FE7FF"/>
<stop offset="0.1671" stop-color="#46D4FA"/>
<stop offset="0.5064" stop-color="#57A1ED"/>
<stop offset="0.508" stop-color="#57A1ED"/>
<stop offset="1" stop-color="#787EFF"/>
</linearGradient>
<linearGradient id="paint6_linear" x1="496.452" y1="642.127" x2="756.135" y2="950.822" gradientUnits="userSpaceOnUse">
<stop stop-color="#3FE7FF"/>
<stop offset="0.1671" stop-color="#46D4FA"/>
<stop offset="0.5064" stop-color="#57A1ED"/>
<stop offset="0.508" stop-color="#57A1ED"/>
<stop offset="1" stop-color="#787EFF"/>
</linearGradient>
<linearGradient id="paint7_linear" x1="617.572" y1="290.056" x2="1396.89" y2="290.056" gradientUnits="userSpaceOnUse">
<stop stop-color="#3FE7FF"/>
<stop offset="0.144" stop-color="#46D4FA"/>
<stop offset="0.4364" stop-color="#57A1ED"/>
<stop offset="0.4378" stop-color="#57A1ED"/>
<stop offset="0.4535" stop-color="#4E9EED"/>
<stop offset="0.5015" stop-color="#3898ED"/>
<stop offset="0.5582" stop-color="#2793EE"/>
<stop offset="0.6284" stop-color="#1C90EE"/>
<stop offset="0.7268" stop-color="#158EEE"/>
<stop offset="1" stop-color="#138DEE"/>
</linearGradient>
<linearGradient id="paint8_linear" x1="1462.05" y1="818.696" x2="1765.33" y2="224.699" gradientUnits="userSpaceOnUse">
<stop stop-color="#3FE7FF"/>
<stop offset="0.1671" stop-color="#46D4FA"/>
<stop offset="0.5064" stop-color="#57A1ED"/>
<stop offset="0.508" stop-color="#57A1ED"/>
<stop offset="1" stop-color="#787EFF"/>
</linearGradient>
<linearGradient id="paint9_linear" x1="1352.64" y1="326.112" x2="1975.49" y2="-293.569" gradientUnits="userSpaceOnUse">
<stop stop-color="#E40074"/>
<stop offset="0.1784" stop-color="#CA1880"/>
<stop offset="0.1936" stop-color="#C61B83"/>
<stop offset="0.3859" stop-color="#933FA2"/>
<stop offset="0.4807" stop-color="#804DAE"/>
<stop offset="0.6875" stop-color="#5765C6"/>
<stop offset="1" stop-color="#138DEE"/>
</linearGradient>
<linearGradient id="paint10_linear" x1="1789.13" y1="241.316" x2="1924" y2="241.316" gradientUnits="userSpaceOnUse">
<stop stop-color="#6C88FF"/>
<stop offset="0.291" stop-color="#57A3EF"/>
<stop offset="0.4031" stop-color="#4EB0EB"/>
<stop offset="0.6093" stop-color="#3FC3E4"/>
<stop offset="1" stop-color="#13EDD3"/>
</linearGradient>
<linearGradient id="paint11_linear" x1="1534.79" y1="547.795" x2="1923.57" y2="547.795" gradientUnits="userSpaceOnUse">
<stop stop-color="#3FE7FF"/>
<stop offset="0.1671" stop-color="#46D4FA"/>
<stop offset="0.5064" stop-color="#57A1ED"/>
<stop offset="0.508" stop-color="#57A1ED"/>
<stop offset="1" stop-color="#787EFF"/>
</linearGradient>
<linearGradient id="paint12_linear" x1="66.1976" y1="663.253" x2="878.433" y2="117.252" gradientUnits="userSpaceOnUse">
<stop stop-color="#E40074"/>
<stop offset="0.2102" stop-color="#C91A81"/>
<stop offset="0.2361" stop-color="#C12086"/>
<stop offset="0.3446" stop-color="#A53498"/>
<stop offset="0.4531" stop-color="#9043A5"/>
<stop offset="0.5607" stop-color="#844CAD"/>
<stop offset="0.6664" stop-color="#804FB0"/>
<stop offset="0.7738" stop-color="#5965C6"/>
<stop offset="0.9253" stop-color="#2782E3"/>
<stop offset="1" stop-color="#138DEE"/>
</linearGradient>
<linearGradient id="paint13_linear" x1="-309.887" y1="439.784" x2="265.197" y2="-154.813" gradientUnits="userSpaceOnUse">
<stop stop-color="#E40074"/>
<stop offset="0.2924" stop-color="#C91A81"/>
<stop offset="0.3136" stop-color="#C12086"/>
<stop offset="0.4026" stop-color="#A53498"/>
<stop offset="0.4915" stop-color="#9043A5"/>
<stop offset="0.5798" stop-color="#844CAD"/>
<stop offset="0.6664" stop-color="#804FB0"/>
<stop offset="0.7738" stop-color="#5965C6"/>
<stop offset="0.9253" stop-color="#2782E3"/>
<stop offset="1" stop-color="#138DEE"/>
</linearGradient>
</defs>
</svg>
