<svg width="1462" height="1251" viewBox="0 0 1462 1251" fill="none" xmlns="http://www.w3.org/2000/svg">
<g opacity="0.89">
<path d="M826.668 493.634C824.98 495.535 823.504 497.224 822.027 498.914C820.55 500.604 819.073 502.505 817.385 504.195C815.908 505.884 814.431 507.574 812.954 509.475C810 512.855 806.835 516.234 804.092 519.614C803.67 520.036 803.248 520.459 803.037 520.881C802.404 521.515 801.982 522.149 801.349 522.782C800.927 523.416 800.294 524.049 799.872 524.472C797.763 527.007 795.442 529.33 793.332 531.865C791.222 534.188 789.112 536.512 787.002 539.046C785.947 540.314 784.892 541.37 783.837 542.426C782.993 543.271 782.36 544.116 781.516 544.96C780.883 545.594 780.461 546.228 779.828 546.65C779.195 547.284 778.562 547.918 778.14 548.551C777.507 549.396 776.663 550.03 776.03 550.875C775.608 551.508 774.975 551.931 774.553 552.564C773.709 553.409 773.076 554.254 772.232 555.099C771.81 555.521 771.388 556.155 770.966 556.578C770.755 556.789 770.333 557.211 770.122 557.634C769.701 558.267 769.068 558.69 768.646 559.323C768.013 559.957 767.38 560.802 766.747 561.436C765.692 562.703 764.426 563.97 763.371 565.026C762.316 566.294 761.05 567.561 759.995 568.617C759.151 569.673 758.096 570.729 757.252 571.574C755.353 573.686 753.454 575.587 751.766 577.488C750.078 579.389 748.179 581.29 746.491 583.191C746.069 583.614 745.647 584.036 745.436 584.459C745.225 584.67 745.014 584.881 744.803 585.092C744.592 585.304 744.17 585.726 743.959 585.937C743.115 586.782 742.271 587.838 741.427 588.683C740.583 589.528 739.74 590.584 738.896 591.429C738.052 592.274 737.208 593.119 736.575 593.964C734.887 595.654 733.41 597.343 731.933 599.033C729.823 601.356 727.924 603.469 726.236 605.581C723.493 608.749 720.961 611.706 718.429 614.663C716.741 616.564 715.264 618.465 713.787 620.155C713.154 621 712.31 621.845 711.678 622.69C710.412 623.957 709.146 625.436 707.669 626.914C706.192 628.393 704.926 630.083 703.449 631.561C701.972 633.251 700.284 634.941 698.807 636.63C697.119 638.32 695.431 640.221 693.743 641.911C692.688 642.967 691.633 644.234 690.367 645.502C689.734 646.135 689.101 646.98 688.257 647.614C687.413 648.67 686.358 649.515 685.514 650.571C684.881 651.416 684.038 652.05 683.405 652.894C682.772 653.528 682.139 654.162 681.717 654.795C681.084 655.429 680.451 656.063 679.818 656.696C679.185 657.33 678.552 657.964 677.919 658.809C677.286 659.442 676.653 660.076 676.02 660.921C675.598 661.343 675.176 661.977 674.543 662.611C674.332 662.822 674.121 663.033 674.121 663.033C673.699 663.455 673.488 663.667 673.066 664.089C670.112 667.257 667.369 670.637 664.415 674.228C662.094 676.974 659.773 679.508 657.453 682.465C656.609 683.31 655.976 684.366 655.132 685.211C655.132 685.422 654.921 685.422 654.921 685.634C654.288 686.479 653.444 687.323 652.811 688.168C651.967 689.224 651.334 690.069 650.49 691.125C649.646 692.182 649.013 693.026 648.169 694.083C646.481 695.984 645.004 698.096 643.527 700.208C642.894 701.053 642.261 701.686 641.839 702.531C641.417 703.165 640.784 703.799 640.362 704.432C639.096 706.122 637.619 708.023 636.353 709.713C634.032 712.881 631.5 716.261 629.18 719.64C627.492 721.964 626.015 724.287 624.327 726.399C622.639 728.723 621.162 731.046 619.474 733.37C618.63 734.637 617.786 735.693 617.153 736.96C616.098 738.439 615.254 739.918 614.199 741.607C613.144 743.086 612.3 744.776 611.245 746.254C610.823 746.677 610.612 747.31 610.19 747.733L608.291 750.901C608.08 751.112 608.08 751.323 607.869 751.535C607.869 751.535 607.869 751.746 607.658 751.746C606.814 753.013 605.97 754.492 605.337 755.759C604.493 757.026 603.86 758.294 603.016 759.561C602.172 760.828 601.539 762.096 600.696 763.574C597.742 768.855 594.788 774.347 591.834 779.838C590.357 782.584 588.88 785.33 587.614 788.287C586.981 789.766 586.137 791.244 585.504 792.512C583.394 796.736 581.284 801.172 579.385 805.607C578.752 807.086 578.119 808.564 577.486 810.043C576.853 811.521 576.22 813 575.587 814.69C574.954 816.168 574.321 817.647 573.688 819.337C572.423 822.505 571.157 825.462 569.891 828.63C568.625 831.799 567.57 834.967 566.304 838.135C565.671 839.825 565.249 841.304 564.616 842.993C564.405 843.838 563.983 844.683 563.772 845.317C563.561 846.162 563.35 847.007 562.928 847.64C562.506 848.908 562.084 850.386 561.662 851.654C561.662 851.865 561.451 852.076 561.451 852.287C561.24 852.71 561.24 853.132 561.029 853.555C561.029 853.766 560.818 853.977 560.818 854.188V854.399C560.818 854.611 560.607 854.822 560.607 855.033C560.185 856.3 559.763 857.568 559.341 858.835C559.341 859.046 559.341 859.257 559.13 859.257C558.708 860.314 558.497 861.37 558.075 862.426C557.02 865.805 556.176 869.185 555.332 872.776C554.91 874.465 554.488 876.155 554.066 878.056C553.644 879.957 553.011 881.858 552.589 883.759C552.378 884.393 552.167 885.026 552.167 885.871C551.956 886.505 551.956 887.139 551.745 887.772C551.323 889.462 550.901 891.152 550.69 892.63C550.69 892.842 550.479 893.264 550.479 893.475C550.479 893.687 550.479 894.109 550.268 894.32C549.846 896.01 549.635 897.7 549.213 899.178C549.002 900.446 548.791 901.713 548.369 902.98C548.158 903.825 548.158 904.67 547.947 905.515C547.947 905.726 547.736 905.937 547.736 906.36C547.525 907.205 547.525 907.838 547.314 908.683C547.314 909.106 547.103 909.528 547.103 909.951C546.681 912.063 546.47 913.964 546.048 916.076C545.837 917.977 545.415 919.878 545.204 921.779C544.993 923.469 544.783 925.37 544.361 927.059C544.15 928.749 543.939 930.65 543.728 932.34C543.728 932.762 543.517 933.185 543.517 933.607C543.517 933.819 543.517 934.03 543.517 934.452C543.306 936.142 543.095 937.621 543.095 939.31C543.095 939.522 543.095 939.733 543.095 939.733C542.884 941.422 542.673 943.112 542.673 944.802C536.554 1029.92 552.378 1109.13 572.845 1172.71C523.894 1213.48 479.797 1240.72 445.194 1258.89C444.561 1259.1 444.139 1259.52 443.506 1259.73C443.084 1259.52 442.873 1259.1 442.451 1258.89H0C3.37588 1145.25 28.906 1013.87 113.936 919.244C133.98 896.855 155.712 875.733 178.5 855.455C181.454 852.71 184.618 850.175 187.783 847.429C372.824 686.901 633.188 568.828 724.337 382.32C727.924 374.927 731.3 367.535 734.254 359.931C759.995 393.937 779.828 420.551 789.956 434.281C801.349 449.911 814.431 469.977 826.668 493.634Z" fill="url(#paint0_linear)"/>
<path d="M1619.37 -19H1235.36C1161.94 62.1089 1076.06 181.238 1057.71 310.716C1024.37 545.805 1137.88 849.33 1104.76 1025.49C1089.14 1108.29 1054.54 1191.51 1010.86 1260.16H1619.37V376.617C1564.72 440.828 1515.77 495.323 1472.31 545.172C1471.67 544.327 1471.25 543.482 1470.62 542.637C1514.5 492.366 1563.88 436.604 1619.37 371.337V-19ZM1038.72 -19H711.677C748.179 80.4851 784.681 231.931 734.254 359.719C731.3 367.323 727.924 374.716 724.337 382.109C632.977 568.617 372.613 686.901 187.572 847.429C229.771 973.106 307.627 1141.03 442.029 1260.16C442.451 1260.37 442.662 1260.79 443.084 1261C443.506 1260.79 444.139 1260.37 444.772 1260.16H606.603C595.632 1236.92 583.394 1207.77 572.633 1173.98C552.167 1110.61 536.343 1031.4 542.462 946.069C542.673 944.38 542.673 942.69 542.884 941C542.884 940.789 542.884 940.578 542.884 940.578C543.095 938.888 543.306 937.409 543.306 935.719C543.306 935.508 543.306 935.297 543.306 934.875C543.306 934.452 543.306 934.03 543.517 933.607C543.728 931.917 543.939 930.016 544.15 928.327C544.361 926.426 544.571 924.736 544.993 923.046C545.204 921.145 545.626 919.244 545.837 917.343C546.048 915.653 546.47 913.752 546.681 912.063C546.681 911.64 546.681 911.429 546.892 911.007C546.892 910.795 546.892 910.795 546.892 910.584C546.892 910.373 546.892 910.373 546.892 910.162C546.892 909.951 546.892 909.739 547.103 909.528C547.103 909.317 547.103 909.106 547.314 908.683C547.525 907.838 547.525 907.205 547.736 906.36C547.947 905.726 547.947 904.881 548.158 904.248C548.369 903.191 548.58 902.135 548.791 901.079C548.791 900.868 548.791 900.657 548.791 900.657C549.002 898.967 549.424 897.277 549.846 895.799C549.846 895.376 550.057 895.165 550.057 894.954C550.057 894.531 550.268 893.898 550.479 893.475C550.901 891.997 551.112 890.518 551.534 889.251C551.534 888.828 551.745 888.617 551.745 888.195C551.956 887.139 552.167 886.294 552.378 885.238C552.8 883.337 553.222 881.436 553.855 879.535C554.277 877.845 554.699 876.155 555.121 874.254C555.965 870.875 557.02 867.284 557.864 863.904C558.286 862.848 558.497 861.792 558.919 860.736C558.919 860.525 558.919 860.314 559.13 860.314C559.552 859.046 559.974 857.568 560.396 856.3C560.396 856.089 560.396 855.878 560.607 855.667C560.607 855.455 560.607 855.244 560.818 855.244V855.033C561.029 854.611 561.029 854.188 561.24 853.766C561.451 852.921 561.662 852.076 562.084 851.231C562.084 851.02 562.084 850.809 562.295 850.809C562.506 850.175 562.717 849.541 562.928 848.908C563.139 848.063 563.35 847.218 563.772 846.584C563.983 845.739 564.194 844.894 564.616 844.261C565.249 842.571 565.671 841.092 566.304 839.403C567.359 836.234 568.625 833.066 569.891 829.898C571.157 826.729 572.423 823.561 573.688 820.604C574.321 819.125 574.954 817.436 575.587 815.957C576.009 815.112 576.22 814.479 576.642 813.634C577.064 812.789 577.275 812.155 577.697 811.31C578.33 809.832 578.963 808.353 579.596 806.875C581.706 802.439 583.605 798.003 585.715 793.779C586.348 792.3 587.192 790.822 587.825 789.554C589.302 786.597 590.779 783.851 592.045 781.106C594.999 775.614 597.953 770.122 600.906 764.842C601.75 763.574 602.383 762.307 603.227 760.828C604.071 759.561 604.704 758.294 605.548 757.026C606.392 755.548 607.236 754.281 608.08 752.802C608.291 752.591 608.502 752.38 608.502 751.957V751.746C609.135 750.901 609.557 749.845 610.19 749C610.401 748.578 610.823 747.944 611.245 747.521C612.3 746.043 613.144 744.353 614.199 742.875C615.254 741.396 616.098 739.917 617.153 738.228C617.997 736.96 618.841 735.904 619.474 734.637C621.162 732.314 622.639 729.99 624.327 727.667C626.015 725.343 627.492 723.02 629.18 720.908C631.5 717.528 634.032 714.149 636.353 710.98C636.986 710.135 637.83 709.079 638.463 708.234C639.096 707.389 639.729 706.545 640.362 705.7C641.417 704.221 642.472 702.954 643.527 701.475C645.215 699.363 646.692 697.462 648.169 695.35C649.013 694.294 649.857 693.449 650.49 692.393C651.334 691.337 652.178 690.492 652.811 689.436C654.288 687.535 655.976 685.634 657.452 683.733C659.773 680.987 662.094 678.241 664.415 675.495C665.048 674.65 665.892 673.805 666.525 672.96C667.369 672.116 668.002 671.271 668.635 670.426C670.112 668.736 671.589 667.046 672.855 665.568C673.066 665.356 673.277 665.145 673.488 664.934L673.699 664.723C673.91 664.512 674.121 664.3 674.332 664.089C674.754 663.667 675.387 663.033 675.809 662.399C676.442 661.766 677.075 660.921 677.708 660.287C678.341 659.654 678.974 659.02 679.607 658.175C680.24 657.541 680.873 656.908 681.506 656.274L682.35 655.218L682.561 655.007C682.772 654.795 682.983 654.584 683.194 654.162C683.827 653.317 684.67 652.683 685.303 651.838C686.147 650.782 687.202 649.726 688.046 648.881C688.679 648.248 689.523 647.403 690.156 646.769C691.211 645.502 692.477 644.446 693.532 643.178C695.22 641.277 696.908 639.587 698.596 637.898C700.284 636.208 701.761 634.518 703.238 632.828C704.715 631.139 706.192 629.66 707.458 628.182C708.724 626.703 710.201 625.224 711.467 623.957C712.1 623.112 712.944 622.267 713.576 621.422C715.053 619.733 716.53 617.832 718.218 615.931C720.539 612.974 723.282 610.016 726.025 606.848C727.924 604.736 729.823 602.624 731.722 600.3C733.199 598.611 734.676 596.921 736.364 595.231C737.208 594.386 738.052 593.541 738.685 592.696C739.529 591.852 740.372 590.795 741.216 589.951C742.482 588.472 743.748 587.205 745.225 585.726C745.647 585.304 746.069 584.881 746.28 584.459C747.968 582.558 749.867 580.657 751.555 578.756C753.243 576.855 755.142 574.954 757.041 572.842C757.885 571.786 758.94 570.729 759.784 569.884C760.839 568.617 761.894 567.561 763.16 566.294C764.215 565.026 765.481 563.759 766.536 562.703C767.169 562.069 767.802 561.224 768.435 560.591C769.701 559.323 770.966 557.845 772.232 556.578C773.076 555.733 773.709 554.888 774.553 554.043C774.975 553.409 775.608 552.987 776.03 552.353C778.562 549.607 781.094 546.65 783.837 543.904C784.892 542.848 785.947 541.581 787.002 540.525C789.112 538.201 791.222 535.878 793.332 533.343C795.442 531.02 797.762 528.485 799.872 525.951C800.294 525.317 800.927 524.894 801.349 524.261C801.982 523.627 802.404 522.993 803.037 522.36C803.459 521.937 803.67 521.515 804.092 521.092C807.046 517.713 810 514.333 812.954 510.954C814.431 509.264 815.908 507.574 817.385 505.673C818.862 503.983 820.55 502.083 822.027 500.393C823.504 498.703 824.98 496.802 826.668 495.112C933.22 369.647 1062.98 184.828 1038.72 -19Z" fill="url(#paint1_linear)"/>
<path d="M1104.76 1025.49C1089.14 1108.29 1054.54 1191.51 1010.87 1260.16H606.604C595.632 1236.92 583.394 1207.77 572.634 1173.98C652.389 1107.86 744.804 1006.48 828.99 853.132C871.188 771.389 878.784 694.505 869.711 627.97C869.711 627.759 869.711 627.759 869.711 627.548C864.014 585.304 851.355 547.073 836.585 514.545C833.209 507.363 830.045 500.393 826.669 493.845C933.22 369.647 1062.98 184.828 1038.72 -19H1235.57C1162.15 62.1089 1076.27 181.238 1057.92 310.716C1024.58 545.594 1138.09 849.33 1104.76 1025.49Z" fill="url(#paint2_linear)"/>
<path d="M831.31 870.663C747.124 1024.01 652.178 1107.86 572.423 1173.98C551.956 1110.61 536.132 1031.19 542.251 946.069C558.497 771.39 671.378 667.046 711.045 622.901C732.777 595.654 777.085 551.086 826.458 493.634C870.133 578.122 906.213 725.343 831.31 870.663Z" fill="url(#paint3_linear)"/>
<path d="M445 1260H0C3.39695 1144.74 29.0864 1012.96 114.647 918.037C134.816 895.578 156.684 874.391 179.614 854.051C182.586 851.297 185.771 848.754 188.955 846C231.205 971.853 309.547 1140.5 445 1260Z" fill="url(#paint4_linear)"/>
<path d="M826.668 493.634C824.98 495.535 823.503 497.225 822.026 498.914C820.549 500.604 819.072 502.505 817.384 504.195C815.908 505.885 814.431 507.575 812.954 509.476C806.202 517.291 799.45 524.683 792.909 531.865C790.799 534.188 788.69 536.512 786.58 539.047C785.525 540.314 784.47 541.37 783.415 542.426C778.14 548.129 773.076 553.832 768.223 559.112C767.59 559.746 766.957 560.591 766.324 561.225C764.003 563.759 761.893 566.083 759.573 568.617C758.729 569.674 757.674 570.73 756.83 571.575C754.931 573.687 753.032 575.588 751.344 577.489C749.656 579.39 747.757 581.291 746.069 583.192C744.381 585.093 742.693 586.994 741.005 588.683C740.161 589.528 739.317 590.584 738.473 591.429C737.629 592.274 736.785 593.119 736.152 593.964C734.464 595.654 732.988 597.344 731.511 599.033C729.401 601.357 727.502 603.469 725.814 605.581C723.071 608.749 720.539 611.707 718.007 614.664C716.319 616.565 714.842 618.466 713.365 620.155C712.732 621 711.888 621.845 711.255 622.69C709.989 623.957 708.723 625.436 707.246 626.914C705.77 628.393 704.504 630.083 703.027 631.561C701.55 633.251 699.862 634.941 698.385 636.631C696.697 638.32 695.009 640.221 693.321 641.911C690.789 644.657 688.046 647.614 685.303 650.571C683.404 652.683 681.505 654.584 679.606 656.908C678.34 658.175 677.286 659.654 676.02 660.921C672.222 665.145 668.424 669.581 664.415 674.017C662.094 676.763 659.773 679.297 657.452 682.254C655.975 684.155 654.287 686.056 652.81 687.957C651.966 689.013 651.333 689.858 650.489 690.914C649.645 691.971 649.013 692.815 648.169 693.872C646.481 695.773 645.004 697.885 643.527 699.997C641.206 703.165 638.674 706.334 636.353 709.502C634.032 712.67 631.5 716.05 629.179 719.429C627.491 721.753 626.014 724.076 624.326 726.188C622.638 728.512 621.162 730.835 619.474 733.159C618.63 734.426 617.786 735.482 617.153 736.749C613.144 742.875 609.346 749 605.548 755.548C604.704 756.815 604.071 758.083 603.227 759.35C602.383 760.617 601.75 761.885 600.906 763.363C597.952 768.644 594.999 774.136 592.045 779.627C590.568 782.373 589.091 785.119 587.825 788.076C587.192 789.555 586.348 791.033 585.715 792.301C583.605 796.525 581.495 800.961 579.596 805.396C577.697 809.832 575.587 814.479 573.688 819.126C572.422 822.294 571.156 825.251 569.89 828.419C568.624 831.588 567.569 834.756 566.303 837.924C565.671 839.614 565.249 841.093 564.616 842.782C563.561 845.951 562.506 849.119 561.451 852.287C560.818 854.4 560.185 856.723 559.341 858.835C558.919 860.103 558.708 861.37 558.286 862.637C557.231 866.017 556.387 869.396 555.543 872.987C555.121 874.677 554.699 876.367 554.277 878.268C553.011 883.337 551.745 888.617 550.69 893.898C550.69 894.109 550.69 894.532 550.479 894.743C550.057 896.433 549.846 898.122 549.424 899.601C548.369 905.093 547.314 910.584 546.47 916.287C546.259 918.188 545.837 920.089 545.626 921.99C545.204 925.581 544.571 929.172 544.149 932.763C544.149 933.185 543.938 933.608 543.938 934.03C543.516 937.832 543.094 941.423 542.883 945.225C536.765 1030.35 552.589 1109.55 573.055 1173.13C584.027 1206.72 596.053 1236.08 607.025 1259.31H445.194C444.561 1259.52 444.139 1259.94 443.506 1260.16C443.084 1259.94 442.873 1259.52 442.451 1259.31C307.838 1140.18 229.982 972.05 187.994 846.584C373.034 686.056 633.399 567.984 724.548 381.476C728.135 374.083 731.511 366.69 734.464 359.086C784.892 231.297 748.39 79.8518 711.888 -19.6333H1038.93C1062.98 184.829 933.219 369.647 826.668 493.634Z" fill="url(#paint5_linear)"/>
<path d="M1619.37 -19H1235.36C1161.93 62.1089 1076.06 181.238 1057.7 310.716C1024.37 545.805 1137.88 849.33 1104.76 1025.49C1089.14 1108.29 1054.54 1191.51 1010.86 1260.16H1619.37V376.617C1564.72 440.828 1515.77 495.323 1472.3 545.172C1471.67 544.327 1471.25 543.482 1470.62 542.637C1514.5 492.366 1563.88 436.604 1619.37 371.337V-19Z" fill="url(#paint6_linear)"/>
<path d="M1472.31 544.96C1471.67 545.594 1471.25 546.228 1470.62 546.861C1424.83 478.637 1384.74 414.003 1355.2 357.607C1286 220.947 1286 89.5676 1305.62 -11.6073C1306.04 -14.1419 1306.68 -16.6766 1307.1 -19H1619.37L1620 378.096L1472.31 544.96Z" fill="url(#paint7_linear)"/>
<path d="M1619.37 1260.16H1193.37C1189.15 1167.85 1197.8 1052.31 1235.99 915.865C1280.09 773.502 1356.68 677.396 1470.83 547.073C1516.19 614.664 1567.25 686.056 1619.58 757.027V1260.16H1619.37Z" fill="url(#paint8_linear)"/>
</g>
<defs>
<linearGradient id="paint0_linear" x1="0" y1="810.328" x2="826.584" y2="810.328" gradientUnits="userSpaceOnUse">
<stop stop-color="#42B4F0"/>
<stop offset="0.291" stop-color="#57A9F5"/>
<stop offset="0.4031" stop-color="#4EB6F1"/>
<stop offset="0.6093" stop-color="#3FC9EA"/>
<stop offset="1" stop-color="#13F3D9"/>
</linearGradient>
<linearGradient id="paint1_linear" x1="187.657" y1="621" x2="1619.32" y2="621" gradientUnits="userSpaceOnUse">
<stop stop-color="#EA0074"/>
<stop offset="0.291" stop-color="#D01886"/>
<stop offset="0.3065" stop-color="#CB1C89"/>
<stop offset="0.4656" stop-color="#983FA8"/>
<stop offset="0.544" stop-color="#854DB4"/>
<stop offset="0.5517" stop-color="#8050B7"/>
<stop offset="0.6057" stop-color="#5E65CA"/>
<stop offset="0.6637" stop-color="#4376D9"/>
<stop offset="0.7263" stop-color="#2E83E5"/>
<stop offset="0.7956" stop-color="#1F8CEE"/>
<stop offset="0.877" stop-color="#1691F2"/>
<stop offset="1" stop-color="#1393F4"/>
</linearGradient>
<linearGradient id="paint2_linear" x1="694.689" y1="988.121" x2="1514.67" y2="77.1108" gradientUnits="userSpaceOnUse">
<stop stop-color="#EA0074"/>
<stop offset="0.291" stop-color="#D01886"/>
<stop offset="0.3065" stop-color="#CB1C89"/>
<stop offset="0.4656" stop-color="#983FA8"/>
<stop offset="0.544" stop-color="#854DB4"/>
</linearGradient>
<linearGradient id="paint3_linear" x1="541.028" y1="833.858" x2="874.67" y2="833.858" gradientUnits="userSpaceOnUse">
<stop stop-color="#3FEDFF"/>
<stop offset="0.1671" stop-color="#46DAFC"/>
<stop offset="0.5064" stop-color="#57A7F3"/>
<stop offset="0.508" stop-color="#57A7F3"/>
<stop offset="1" stop-color="#787EFF"/>
</linearGradient>
<linearGradient id="paint4_linear" x1="55.2664" y1="1006.52" x2="341.117" y2="1346.83" gradientUnits="userSpaceOnUse">
<stop stop-color="#3FEDFF"/>
<stop offset="0.1671" stop-color="#46DAFC"/>
<stop offset="0.5064" stop-color="#57A7F3"/>
<stop offset="0.508" stop-color="#57A7F3"/>
<stop offset="1" stop-color="#787EFF"/>
</linearGradient>
<linearGradient id="paint5_linear" x1="187.657" y1="621" x2="1041.67" y2="621" gradientUnits="userSpaceOnUse">
<stop stop-color="#3FEDFF"/>
<stop offset="0.144" stop-color="#46DAFC"/>
<stop offset="0.4364" stop-color="#57A7F3"/>
<stop offset="0.4378" stop-color="#57A7F3"/>
<stop offset="0.4535" stop-color="#4EA4F3"/>
<stop offset="0.5015" stop-color="#389EF3"/>
<stop offset="0.5582" stop-color="#2799F4"/>
<stop offset="0.6284" stop-color="#1C96F4"/>
<stop offset="0.7268" stop-color="#1594F4"/>
<stop offset="1" stop-color="#1393F4"/>
</linearGradient>
<linearGradient id="paint6_linear" x1="1113.09" y1="1201.27" x2="1446.31" y2="549.703" gradientUnits="userSpaceOnUse">
<stop stop-color="#3FEDFF"/>
<stop offset="0.1671" stop-color="#46DAFC"/>
<stop offset="0.5064" stop-color="#57A7F3"/>
<stop offset="0.508" stop-color="#57A7F3"/>
<stop offset="1" stop-color="#787EFF"/>
</linearGradient>
<linearGradient id="paint7_linear" x1="997.13" y1="653.48" x2="1673.66" y2="-17.7932" gradientUnits="userSpaceOnUse">
<stop stop-color="#EA0074"/>
<stop offset="0.1784" stop-color="#D01886"/>
<stop offset="0.1969" stop-color="#CB1C89"/>
<stop offset="0.387" stop-color="#983FA8"/>
<stop offset="0.4807" stop-color="#854DB4"/>
<stop offset="0.679" stop-color="#5C66CB"/>
<stop offset="1" stop-color="#1393F4"/>
</linearGradient>
<linearGradient id="paint8_linear" x1="1192.28" y1="903.515" x2="1619.32" y2="903.515" gradientUnits="userSpaceOnUse">
<stop stop-color="#3FEDFF"/>
<stop offset="0.1671" stop-color="#46DAFC"/>
<stop offset="0.5064" stop-color="#57A7F3"/>
<stop offset="0.508" stop-color="#57A7F3"/>
<stop offset="1" stop-color="#787EFF"/>
</linearGradient>
</defs>
</svg>
