<svg width="320" height="675" viewBox="0 0 320 675" fill="none" xmlns="http://www.w3.org/2000/svg">
<mask id="mask0" mask-type="alpha" maskUnits="userSpaceOnUse" x="-514" y="0" width="1148" height="675">
<path d="M-514 0H634V674.186H-514V0Z" fill="black"/>
</mask>
<g mask="url(#mask0)">
<g opacity="0.89">
<path d="M254.139 295.157C253.13 296.294 252.247 297.304 251.364 298.315C250.481 299.325 249.598 300.462 248.588 301.472C247.705 302.483 246.822 303.493 245.939 304.63C244.173 306.65 242.28 308.671 240.64 310.692C240.388 310.944 240.136 311.197 240.01 311.449C239.631 311.828 239.379 312.207 239 312.586C238.748 312.965 238.369 313.344 238.117 313.596C236.856 315.112 235.468 316.501 234.206 318.017C232.945 319.406 231.683 320.795 230.421 322.311C229.791 323.069 229.16 323.7 228.529 324.332C228.024 324.837 227.646 325.342 227.141 325.847C226.763 326.226 226.511 326.605 226.132 326.857C225.754 327.236 225.375 327.615 225.123 327.994C224.744 328.499 224.24 328.878 223.861 329.383C223.609 329.762 223.23 330.015 222.978 330.394C222.474 330.899 222.095 331.404 221.59 331.909C221.338 332.162 221.086 332.541 220.833 332.793C220.707 332.92 220.455 333.172 220.329 333.425C220.077 333.804 219.698 334.056 219.446 334.435C219.067 334.814 218.689 335.319 218.31 335.698C217.679 336.456 216.923 337.214 216.292 337.845C215.661 338.603 214.904 339.361 214.273 339.992C213.769 340.624 213.138 341.255 212.633 341.76C211.498 343.023 210.362 344.16 209.353 345.297C208.344 346.433 207.208 347.57 206.199 348.707C205.947 348.959 205.694 349.212 205.568 349.464C205.442 349.591 205.316 349.717 205.19 349.843C205.064 349.969 204.811 350.222 204.685 350.348C204.181 350.854 203.676 351.485 203.171 351.99C202.667 352.495 202.162 353.127 201.657 353.632C201.153 354.137 200.648 354.642 200.27 355.148C199.26 356.158 198.377 357.168 197.494 358.179C196.233 359.568 195.097 360.831 194.088 362.094C192.448 363.988 190.934 365.756 189.42 367.524C188.411 368.661 187.528 369.798 186.645 370.808C186.266 371.313 185.761 371.818 185.383 372.324C184.626 373.081 183.869 373.965 182.986 374.85C182.103 375.734 181.346 376.744 180.463 377.628C179.58 378.638 178.57 379.649 177.687 380.659C176.678 381.669 175.669 382.806 174.66 383.817C174.029 384.448 173.398 385.206 172.641 385.964C172.263 386.342 171.884 386.848 171.379 387.226C170.875 387.858 170.244 388.363 169.739 388.995C169.361 389.5 168.856 389.879 168.478 390.384C168.099 390.763 167.721 391.142 167.469 391.521C167.09 391.899 166.712 392.278 166.333 392.657C165.955 393.036 165.576 393.415 165.198 393.92C164.819 394.299 164.441 394.678 164.062 395.183C163.81 395.436 163.558 395.815 163.179 396.193C163.053 396.32 162.927 396.446 162.927 396.446C162.674 396.699 162.548 396.825 162.296 397.077C160.53 398.972 158.89 400.993 157.124 403.14C155.736 404.782 154.348 406.297 152.96 408.065C152.456 408.57 152.077 409.202 151.573 409.707C151.573 409.833 151.446 409.833 151.446 409.96C151.068 410.465 150.563 410.97 150.185 411.475C149.68 412.107 149.302 412.612 148.797 413.243C148.292 413.875 147.914 414.38 147.409 415.011C146.4 416.148 145.517 417.411 144.634 418.674C144.255 419.179 143.877 419.558 143.625 420.063C143.372 420.442 142.994 420.821 142.741 421.2C141.985 422.21 141.101 423.347 140.344 424.357C138.957 426.252 137.443 428.272 136.055 430.293C135.046 431.682 134.163 433.072 133.153 434.335C132.144 435.724 131.261 437.113 130.252 438.502C129.747 439.26 129.243 439.892 128.864 440.649C128.233 441.533 127.729 442.417 127.098 443.428C126.467 444.312 125.962 445.322 125.332 446.206C125.079 446.459 124.953 446.838 124.701 447.09L123.565 448.985C123.439 449.111 123.439 449.237 123.313 449.364C123.313 449.364 123.313 449.49 123.187 449.49C122.682 450.248 122.178 451.132 121.799 451.89C121.295 452.647 120.916 453.405 120.411 454.163C119.907 454.921 119.528 455.678 119.024 456.562C117.258 459.72 115.491 463.004 113.725 466.287C112.842 467.929 111.959 469.571 111.202 471.339C110.823 472.223 110.319 473.107 109.94 473.865C108.679 476.391 107.417 479.043 106.282 481.695C105.903 482.579 105.525 483.463 105.146 484.347C104.768 485.231 104.389 486.116 104.011 487.126C103.632 488.01 103.254 488.894 102.875 489.904C102.118 491.799 101.362 493.567 100.605 495.461C99.8477 497.356 99.2169 499.25 98.4599 501.145C98.0814 502.155 97.8291 503.039 97.4507 504.049C97.3245 504.555 97.0722 505.06 96.946 505.439C96.8199 505.944 96.6937 506.449 96.4414 506.828C96.1891 507.586 95.9368 508.47 95.6844 509.228C95.6844 509.354 95.5583 509.48 95.5583 509.606C95.4321 509.859 95.4321 510.112 95.3059 510.364C95.3059 510.49 95.1798 510.617 95.1798 510.743V510.869C95.1798 510.996 95.0536 511.122 95.0536 511.248C94.8013 512.006 94.549 512.764 94.2967 513.522C94.2967 513.648 94.2967 513.774 94.1705 513.774C93.9182 514.406 93.7921 515.037 93.5397 515.669C92.9089 517.689 92.4043 519.71 91.8997 521.857C91.6474 522.867 91.3951 523.878 91.1427 525.014C90.8904 526.151 90.5119 527.288 90.2596 528.424C90.1335 528.803 90.0073 529.182 90.0073 529.687C89.8812 530.066 89.8811 530.445 89.755 530.824C89.5027 531.834 89.2504 532.845 89.1242 533.729C89.1242 533.855 88.998 534.108 88.998 534.234C88.998 534.36 88.998 534.613 88.8719 534.739C88.6195 535.749 88.4934 536.76 88.2411 537.644C88.1149 538.402 87.9888 539.159 87.7365 539.917C87.6103 540.422 87.6103 540.928 87.4842 541.433C87.4842 541.559 87.358 541.685 87.358 541.938C87.2318 542.443 87.2318 542.822 87.1057 543.327C87.1057 543.58 86.9795 543.832 86.9795 544.085C86.7272 545.348 86.601 546.485 86.3487 547.747C86.2225 548.884 85.9702 550.021 85.8441 551.157C85.7179 552.168 85.5918 553.304 85.3394 554.315C85.2133 555.325 85.0872 556.462 84.961 557.472C84.961 557.725 84.8348 557.977 84.8348 558.23C84.8348 558.356 84.8348 558.483 84.8348 558.735C84.7087 559.745 84.5825 560.63 84.5825 561.64C84.5825 561.766 84.5825 561.893 84.5825 561.893C84.4563 562.903 84.3302 563.913 84.3302 564.924C80.6716 615.82 90.1335 663.181 102.371 701.196C73.1021 725.571 46.735 741.863 26.045 752.724C25.6666 752.851 25.4142 753.103 25.0358 753.229C24.7835 753.103 24.6573 752.851 24.405 752.724H-240.149C-238.13 684.778 -222.865 606.222 -172.023 549.642C-160.038 536.255 -147.044 523.625 -133.419 511.501C-131.653 509.859 -129.76 508.343 -127.868 506.702C-17.2272 410.717 138.452 340.118 192.952 228.6C195.097 224.18 197.116 219.759 198.882 215.213C214.273 235.546 226.132 251.459 232.188 259.669C239 269.014 246.822 281.012 254.139 295.157Z" fill="url(#paint0_linear)"/>
<path d="M728.116 -11.3606H498.508C454.605 37.1367 403.258 108.367 392.282 185.786C372.349 326.352 440.223 507.838 420.416 613.168C411.08 662.676 390.39 712.436 364.275 753.482H728.116V225.19C695.441 263.584 666.172 296.168 640.183 325.973C639.805 325.468 639.553 324.963 639.174 324.458C665.415 294.4 694.936 261.058 728.116 222.033V-11.3606ZM380.928 -11.3606H185.383C207.208 48.1244 229.034 138.678 198.882 215.086C197.116 219.633 195.097 224.053 192.952 228.474C138.326 339.992 -17.3536 410.717 -127.994 506.702C-102.763 581.847 -56.2103 682.252 24.1525 753.482C24.4048 753.608 24.531 753.861 24.7833 753.987C25.0356 753.861 25.4141 753.608 25.7926 753.482H122.556C115.996 739.59 108.679 722.161 102.244 701.954C90.0071 664.065 80.5453 616.705 84.2039 565.681C84.33 564.671 84.33 563.661 84.4562 562.65C84.4562 562.524 84.4562 562.398 84.4562 562.398C84.5823 561.387 84.7085 560.503 84.7085 559.493C84.7085 559.367 84.7085 559.24 84.7085 558.988C84.7085 558.735 84.7085 558.483 84.8347 558.23C84.9608 557.22 85.087 556.083 85.2131 555.073C85.3393 553.936 85.4654 552.926 85.7177 551.915C85.8439 550.779 86.0963 549.642 86.2224 548.505C86.3486 547.495 86.6009 546.358 86.727 545.348C86.727 545.095 86.727 544.969 86.8532 544.716C86.8532 544.59 86.8532 544.59 86.8532 544.464C86.8532 544.337 86.8532 544.337 86.8532 544.211C86.8532 544.085 86.8532 543.959 86.9793 543.832C86.9793 543.706 86.9793 543.58 87.1055 543.327C87.2316 542.822 87.2317 542.443 87.3578 541.938C87.484 541.559 87.484 541.054 87.6101 540.675C87.7363 540.043 87.8625 539.412 87.9886 538.781C87.9886 538.654 87.9886 538.528 87.9886 538.528C88.1148 537.518 88.3671 536.507 88.6194 535.623C88.6194 535.371 88.7456 535.244 88.7456 535.118C88.7456 534.865 88.8717 534.486 88.9979 534.234C89.2502 533.35 89.3763 532.466 89.6287 531.708C89.6287 531.455 89.7548 531.329 89.7548 531.076C89.881 530.445 90.0071 529.94 90.1333 529.308C90.3856 528.172 90.6379 527.035 91.0164 525.898C91.2687 524.888 91.521 523.878 91.7734 522.741C92.278 520.72 92.9088 518.573 93.4134 516.553C93.6657 515.921 93.7919 515.29 94.0442 514.658C94.0442 514.532 94.0442 514.406 94.1704 514.406C94.4227 513.648 94.675 512.764 94.9273 512.006C94.9273 511.88 94.9273 511.753 95.0535 511.627C95.0535 511.501 95.0535 511.374 95.1796 511.374V511.248C95.3058 510.996 95.3058 510.743 95.4319 510.49C95.5581 509.985 95.6842 509.48 95.9366 508.975C95.9366 508.849 95.9366 508.722 96.0627 508.722C96.1889 508.343 96.315 507.965 96.4412 507.586C96.5674 507.08 96.6935 506.575 96.9459 506.196C97.072 505.691 97.1982 505.186 97.4505 504.807C97.829 503.797 98.0813 502.913 98.4597 501.902C99.0905 500.008 99.8475 498.113 100.604 496.219C101.361 494.325 102.118 492.43 102.875 490.662C103.254 489.778 103.632 488.768 104.011 487.884C104.263 487.378 104.389 487 104.641 486.494C104.894 485.989 105.02 485.61 105.272 485.105C105.651 484.221 106.029 483.337 106.408 482.453C107.669 479.801 108.805 477.149 110.066 474.623C110.445 473.739 110.949 472.854 111.328 472.097C112.211 470.329 113.094 468.687 113.851 467.045C115.617 463.761 117.383 460.478 119.15 457.32C119.654 456.562 120.033 455.805 120.537 454.921C121.042 454.163 121.421 453.405 121.925 452.647C122.43 451.763 122.934 451.005 123.439 450.121C123.565 449.995 123.691 449.869 123.691 449.616V449.49C124.07 448.985 124.322 448.353 124.701 447.848C124.827 447.596 125.079 447.217 125.331 446.964C125.962 446.08 126.467 445.07 127.098 444.186C127.728 443.301 128.233 442.417 128.864 441.407C129.369 440.649 129.873 440.018 130.252 439.26C131.261 437.871 132.144 436.482 133.153 435.092C134.163 433.703 135.046 432.314 136.055 431.051C137.443 429.03 138.957 427.009 140.344 425.115C140.723 424.61 141.227 423.978 141.606 423.473C141.984 422.968 142.363 422.463 142.741 421.958C143.372 421.074 144.003 420.316 144.634 419.432C145.643 418.169 146.526 417.032 147.409 415.769C147.914 415.138 148.418 414.632 148.797 414.001C149.302 413.37 149.806 412.864 150.185 412.233C151.068 411.096 152.077 409.96 152.96 408.823C154.348 407.181 155.736 405.539 157.123 403.897C157.502 403.392 158.006 402.887 158.385 402.382C158.89 401.877 159.268 401.372 159.647 400.866C160.53 399.856 161.413 398.846 162.17 397.962C162.296 397.835 162.422 397.709 162.548 397.583L162.674 397.456C162.8 397.33 162.927 397.204 163.053 397.077C163.305 396.825 163.684 396.446 163.936 396.067C164.314 395.688 164.693 395.183 165.071 394.804C165.45 394.425 165.828 394.046 166.207 393.541C166.585 393.162 166.964 392.783 167.342 392.405L167.847 391.773L167.973 391.647C168.099 391.521 168.225 391.394 168.351 391.142C168.73 390.636 169.235 390.258 169.613 389.752C170.118 389.121 170.748 388.489 171.253 387.984C171.632 387.605 172.136 387.1 172.515 386.721C173.145 385.964 173.902 385.332 174.533 384.574C175.542 383.438 176.552 382.427 177.561 381.417C178.57 380.407 179.453 379.396 180.336 378.386C181.22 377.375 182.103 376.491 182.86 375.607C183.617 374.723 184.5 373.839 185.257 373.081C185.635 372.576 186.14 372.071 186.518 371.566C187.401 370.556 188.284 369.419 189.294 368.282C190.681 366.514 192.322 364.746 193.962 362.852C195.097 361.589 196.232 360.326 197.368 358.936C198.251 357.926 199.134 356.916 200.143 355.905C200.648 355.4 201.153 354.895 201.531 354.39C202.036 353.885 202.54 353.253 203.045 352.748C203.802 351.864 204.559 351.106 205.442 350.222C205.694 349.969 205.947 349.717 206.073 349.464C207.082 348.328 208.217 347.191 209.227 346.054C210.236 344.918 211.371 343.781 212.507 342.518C213.011 341.887 213.642 341.255 214.147 340.75C214.778 339.992 215.408 339.361 216.165 338.603C216.796 337.845 217.553 337.087 218.184 336.456C218.562 336.077 218.941 335.572 219.319 335.193C220.076 334.435 220.833 333.551 221.59 332.793C222.095 332.288 222.473 331.783 222.978 331.278C223.23 330.899 223.609 330.646 223.861 330.267C225.375 328.626 226.889 326.857 228.529 325.216C229.16 324.584 229.791 323.826 230.421 323.195C231.683 321.806 232.944 320.416 234.206 318.901C235.468 317.512 236.855 315.996 238.117 314.481C238.369 314.102 238.748 313.849 239 313.47C239.379 313.091 239.631 312.712 240.009 312.334C240.262 312.081 240.388 311.828 240.64 311.576C242.406 309.555 244.173 307.534 245.939 305.514C246.822 304.503 247.705 303.493 248.588 302.356C249.471 301.346 250.48 300.209 251.364 299.199C252.247 298.188 253.13 297.052 254.139 296.041C317.849 221.022 395.436 110.514 380.928 -11.3606Z" fill="url(#paint1_linear)"/>
<path d="M420.416 613.168C411.08 662.676 390.39 712.436 364.276 753.482H122.556C115.996 739.589 108.679 722.161 102.245 701.954C149.933 662.423 205.19 601.802 255.527 510.111C280.759 461.235 285.301 415.264 279.876 375.481C279.876 375.355 279.876 375.355 279.876 375.228C276.469 349.969 268.9 327.11 260.069 307.661C258.05 303.367 256.158 299.199 254.139 295.284C317.849 221.022 395.437 110.514 380.929 -11.3606H498.634C454.731 37.1367 403.385 108.367 392.409 185.786C372.476 326.226 440.349 507.838 420.416 613.168Z" fill="url(#paint2_linear)"/>
<path d="M256.915 520.594C206.578 612.284 149.806 662.423 102.119 701.954C89.8813 664.065 80.4194 616.578 84.078 565.681C93.7922 461.235 161.287 398.846 185.005 372.45C197.999 356.158 224.492 329.51 254.013 295.157C280.128 345.675 301.701 433.703 256.915 520.594Z" fill="url(#paint3_linear)"/>
<path d="M25.929 753.389H-240.149C-238.118 684.473 -222.757 605.675 -171.598 548.92C-159.538 535.491 -146.463 522.823 -132.753 510.661C-130.976 509.014 -129.072 507.494 -127.167 505.847C-101.905 581.098 -55.0623 681.939 25.929 753.389Z" fill="url(#paint4_linear)"/>
<path d="M254.139 295.158C253.13 296.294 252.247 297.305 251.364 298.315C250.481 299.325 249.597 300.462 248.588 301.472C247.705 302.483 246.822 303.493 245.939 304.63C241.902 309.303 237.865 313.723 233.954 318.017C232.692 319.406 231.431 320.796 230.169 322.311C229.538 323.069 228.907 323.7 228.277 324.332C225.123 327.742 222.095 331.152 219.193 334.309C218.815 334.688 218.436 335.193 218.058 335.572C216.67 337.088 215.409 338.477 214.021 339.992C213.516 340.624 212.885 341.255 212.381 341.76C211.245 343.023 210.11 344.16 209.101 345.297C208.091 346.433 206.956 347.57 205.947 348.707C204.937 349.843 203.928 350.98 202.919 351.99C202.414 352.496 201.91 353.127 201.405 353.632C200.9 354.137 200.396 354.643 200.017 355.148C199.008 356.158 198.125 357.168 197.242 358.179C195.98 359.568 194.845 360.831 193.835 362.094C192.195 363.988 190.681 365.757 189.168 367.525C188.158 368.661 187.275 369.798 186.392 370.808C186.014 371.313 185.509 371.819 185.131 372.324C184.374 373.082 183.617 373.966 182.734 374.85C181.85 375.734 181.093 376.744 180.21 377.628C179.327 378.639 178.318 379.649 177.435 380.659C176.426 381.67 175.416 382.806 174.407 383.817C172.893 385.459 171.253 387.227 169.613 388.995C168.478 390.258 167.342 391.394 166.207 392.784C165.45 393.541 164.819 394.425 164.062 395.183C161.791 397.709 159.52 400.361 157.123 403.014C155.736 404.655 154.348 406.171 152.96 407.939C152.077 409.076 151.068 410.212 150.185 411.349C149.68 411.98 149.302 412.486 148.797 413.117C148.292 413.749 147.914 414.254 147.409 414.885C146.4 416.022 145.517 417.285 144.634 418.548C143.246 420.442 141.732 422.337 140.344 424.231C138.957 426.126 137.443 428.146 136.055 430.167C135.046 431.556 134.163 432.945 133.153 434.208C132.144 435.598 131.261 436.987 130.252 438.376C129.747 439.134 129.242 439.765 128.864 440.523C126.467 444.186 124.196 447.848 121.925 451.763C121.421 452.521 121.042 453.279 120.538 454.037C120.033 454.794 119.654 455.552 119.15 456.436C117.384 459.594 115.617 462.877 113.851 466.161C112.968 467.803 112.085 469.445 111.328 471.213C110.949 472.097 110.445 472.981 110.066 473.739C108.805 476.265 107.543 478.917 106.408 481.569C105.272 484.221 104.011 487 102.875 489.778C102.118 491.673 101.361 493.441 100.605 495.335C99.8476 497.23 99.2168 499.124 98.4598 501.018C98.0813 502.029 97.829 502.913 97.4505 503.923C96.8198 505.818 96.189 507.712 95.5582 509.607C95.1797 510.869 94.8012 512.259 94.2966 513.522C94.0443 514.279 93.9181 515.037 93.6658 515.795C93.035 517.816 92.5304 519.836 92.0257 521.983C91.7734 522.994 91.5211 524.004 91.2688 525.141C90.5119 528.172 89.7549 531.329 89.1241 534.487C89.1241 534.613 89.1241 534.866 88.9979 534.992C88.7456 536.002 88.6195 537.013 88.3671 537.897C87.7364 541.18 87.1056 544.464 86.6009 547.874C86.4748 549.011 86.2225 550.147 86.0963 551.284C85.844 553.431 85.4655 555.578 85.2132 557.725C85.2132 557.977 85.087 558.23 85.087 558.483C84.8347 560.756 84.5824 562.903 84.4562 565.176C80.7976 616.073 90.2595 663.434 102.497 701.449C109.057 721.53 116.248 739.085 122.808 752.977H26.045C25.6665 753.103 25.4142 753.356 25.0357 753.482C24.7834 753.356 24.6572 753.103 24.4049 752.977C-56.0841 681.747 -102.636 581.216 -127.742 506.197C-17.1012 410.212 138.578 339.613 193.078 228.095C195.223 223.675 197.242 219.254 199.008 214.708C229.16 138.299 207.334 47.7457 185.509 -11.7393H381.054C395.436 110.514 317.849 221.022 254.139 295.158Z" fill="url(#paint5_linear)"/>
</g>
</g>
<defs>
<linearGradient id="paint0_linear" x1="-240.149" y1="484.518" x2="254.089" y2="484.518" gradientUnits="userSpaceOnUse">
<stop stop-color="#42B4F0"/>
<stop offset="0.291" stop-color="#57A9F5"/>
<stop offset="0.4031" stop-color="#4EB6F1"/>
<stop offset="0.6093" stop-color="#3FC9EA"/>
<stop offset="1" stop-color="#13F3D9"/>
</linearGradient>
<linearGradient id="paint1_linear" x1="-127.944" y1="371.313" x2="728.09" y2="371.313" gradientUnits="userSpaceOnUse">
<stop stop-color="#EA0074"/>
<stop offset="0.291" stop-color="#D01886"/>
<stop offset="0.3065" stop-color="#CB1C89"/>
<stop offset="0.4656" stop-color="#983FA8"/>
<stop offset="0.544" stop-color="#854DB4"/>
<stop offset="0.5517" stop-color="#8050B7"/>
<stop offset="0.6057" stop-color="#5E65CA"/>
<stop offset="0.6637" stop-color="#4376D9"/>
<stop offset="0.7263" stop-color="#2E83E5"/>
<stop offset="0.7956" stop-color="#1F8CEE"/>
<stop offset="0.877" stop-color="#1691F2"/>
<stop offset="1" stop-color="#1393F4"/>
</linearGradient>
<linearGradient id="paint2_linear" x1="175.225" y1="590.825" x2="665.516" y2="46.1067" gradientUnits="userSpaceOnUse">
<stop stop-color="#EA0074"/>
<stop offset="0.291" stop-color="#D01886"/>
<stop offset="0.3065" stop-color="#CB1C89"/>
<stop offset="0.4656" stop-color="#983FA8"/>
<stop offset="0.544" stop-color="#854DB4"/>
</linearGradient>
<linearGradient id="paint3_linear" x1="83.3467" y1="498.587" x2="282.84" y2="498.587" gradientUnits="userSpaceOnUse">
<stop stop-color="#3FEDFF"/>
<stop offset="0.1671" stop-color="#46DAFC"/>
<stop offset="0.5064" stop-color="#57A7F3"/>
<stop offset="0.508" stop-color="#57A7F3"/>
<stop offset="1" stop-color="#787EFF"/>
</linearGradient>
<linearGradient id="paint4_linear" x1="-207.104" y1="601.828" x2="-36.1854" y2="805.309" gradientUnits="userSpaceOnUse">
<stop stop-color="#3FEDFF"/>
<stop offset="0.1671" stop-color="#46DAFC"/>
<stop offset="0.5064" stop-color="#57A7F3"/>
<stop offset="0.508" stop-color="#57A7F3"/>
<stop offset="1" stop-color="#787EFF"/>
</linearGradient>
<linearGradient id="paint5_linear" x1="-127.944" y1="371.313" x2="382.695" y2="371.313" gradientUnits="userSpaceOnUse">
<stop stop-color="#3FEDFF"/>
<stop offset="0.144" stop-color="#46DAFC"/>
<stop offset="0.4364" stop-color="#57A7F3"/>
<stop offset="0.4378" stop-color="#57A7F3"/>
<stop offset="0.4535" stop-color="#4EA4F3"/>
<stop offset="0.5015" stop-color="#389EF3"/>
<stop offset="0.5582" stop-color="#2799F4"/>
<stop offset="0.6284" stop-color="#1C96F4"/>
<stop offset="0.7268" stop-color="#1594F4"/>
<stop offset="1" stop-color="#1393F4"/>
</linearGradient>
</defs>
</svg>
