<svg width="1920" height="52" viewBox="0 0 1920 52" fill="none" xmlns="http://www.w3.org/2000/svg">
<mask id="mask0" mask-type="alpha" maskUnits="userSpaceOnUse" x="0" y="0" width="1920" height="52">
<path d="M0 0H1920V52H0V0Z" fill="#FF9A00"/>
</mask>
<g mask="url(#mask0)">
<path d="M1920 -226.81C1869.65 -167.494 1824.85 -117.139 1784.75 -71.4783C1785.17 -70.6249 1785.6 -70.1981 1786.45 -69.3447C1827.41 -8.32153 1873.07 56.1155 1920 120.126V580.146H0V-581H233.387C280.747 -487.118 342.187 -356.111 387.413 -227.237C393.387 -235.345 399.36 -243.026 404.907 -251.134C495.36 -392.383 532.053 -503.334 545.707 -581H1919.57V-226.81H1920Z" fill="url(#paint0_linear)"/>
<path d="M941.227 295.087C935.68 372.326 950.187 444.445 968.533 502.054C924.16 539.18 884.053 563.93 852.48 580.146C852.053 580.573 851.627 580.573 850.773 581C850.347 580.573 850.347 580.573 849.92 580.146H0V-581H853.76C870.827 -558.383 894.293 -528.085 920.32 -493.946C983.04 -411.586 1062.83 -307.463 1115.31 -237.478C1138.77 -206.753 1156.69 -182.43 1166.08 -170.054C1176.75 -155.545 1188.27 -137.196 1199.36 -115.859C1154.56 -63.7971 1114.03 -23.2573 1094.4 1.49341C1058.56 42.0332 956.16 136.768 941.227 295.087Z" fill="url(#paint1_linear)"/>
<path d="M1392.21 -581H977.92C966.4 -557.53 948.48 -528.085 920.32 -493.946C883.2 -448.286 827.733 -393.663 745.386 -332.64C483.413 -138.049 589.226 90.2543 616.106 196.938C616.533 197.792 616.533 198.645 616.96 199.499C617.813 201.632 618.24 203.766 619.093 205.9C657.493 319.838 728.32 472.609 850.346 580.573C850.773 581 850.773 581 851.2 581.427C851.626 581 852.053 581 852.906 580.573H999.68C989.866 559.236 978.773 532.779 968.533 502.481C949.76 444.871 935.68 372.753 941.226 295.514C955.733 136.768 1058.56 42.0332 1094.4 2.34686C1114.03 -22.4038 1154.56 -62.9437 1199.36 -115.005C1296.64 -228.09 1414.4 -395.797 1392.21 -581ZM1920 -581H1570.99C1504.43 -507.602 1426.35 -399.211 1409.71 -281.859C1379.41 -68.4912 1482.67 207.18 1452.37 367.206C1438.29 442.311 1406.72 517.843 1367.04 580.146H1920V-222.116C1870.51 -164.08 1825.71 -114.152 1786.45 -69.3447C1786.03 -70.1981 1785.6 -70.6249 1784.75 -71.4783C1824.85 -117.139 1869.65 -167.494 1920 -226.81V-581Z" fill="url(#paint2_linear)"/>
<path d="M1452.37 367.206C1438.29 442.311 1406.72 517.843 1367.04 580.146H999.68C989.867 558.81 978.773 532.352 968.533 502.054C1041.07 441.884 1125.12 350.136 1201.49 210.594C1239.89 136.342 1246.72 66.7839 1238.61 6.1875V5.76074C1233.49 -32.6454 1221.97 -67.211 1208.32 -97.0825C1205.33 -103.483 1202.35 -109.885 1199.36 -115.859C1296.64 -228.09 1414.4 -395.797 1392.21 -581H1570.99C1504.43 -507.602 1426.35 -399.211 1409.71 -281.859C1379.41 -68.4912 1482.67 207.18 1452.37 367.206Z" fill="url(#paint3_linear)"/>
<path d="M1204.05 226.81C1127.68 365.926 1041.49 442.311 968.96 502.054C950.187 444.445 936.107 372.327 941.653 295.088C956.16 136.342 1058.99 41.6069 1094.83 1.92056C1114.45 -22.8301 1154.99 -63.37 1199.79 -115.432C1239.04 -39.0461 1271.89 94.9488 1204.05 226.81Z" fill="url(#paint4_linear)"/>
<path d="M1199.79 -115.432C1154.99 -63.3707 1114.45 -22.8307 1094.83 1.91992C1058.99 42.033 956.16 136.768 941.653 295.087C936.107 372.326 950.613 444.444 968.96 502.054C978.773 532.779 989.867 559.236 1000.11 580.146H853.333C852.907 580.573 852.48 580.573 851.627 581C851.2 580.573 851.2 580.573 850.773 580.146C728.32 472.182 657.92 319.411 619.52 205.473C787.627 59.5292 1024.43 -47.5814 1107.2 -216.995C1110.61 -223.823 1113.6 -230.651 1116.16 -237.479C1161.81 -353.551 1128.96 -490.959 1095.68 -581.427H1393.07C1414.4 -395.797 1296.64 -228.09 1199.79 -115.432Z" fill="url(#paint5_linear)"/>
<path d="M1920 -581H1570.99C1504.43 -507.602 1426.35 -399.211 1409.71 -281.859C1379.41 -68.4912 1482.67 207.18 1452.37 367.206C1438.29 442.311 1406.72 517.843 1367.04 580.146H1920V-222.116C1870.51 -164.08 1825.71 -114.152 1786.45 -69.3447C1786.03 -70.1981 1785.6 -70.6249 1784.75 -71.4783C1824.85 -117.139 1869.65 -167.494 1920 -226.81V-581Z" fill="url(#paint6_linear)"/>
<path d="M1920 -221.69V123.539C1872.64 59.1017 1826.13 -5.7621 1784.75 -67.212C1785.17 -67.6387 1785.6 -68.4922 1786.45 -68.9189C1825.71 -114.153 1870.51 -163.654 1920 -221.69Z" fill="url(#paint7_linear)"/>
<path d="M1920 580.146H1533.01C1529.17 496.506 1537.28 391.529 1571.84 267.349C1611.95 138.048 1681.49 50.994 1785.17 -67.6384C1826.56 -6.18855 1873.07 58.6752 1920.43 123.112V580.146H1920Z" fill="url(#paint8_linear)"/>
<path d="M333.653 580.146H0V249.853C109.653 69.3439 265.813 -64.2242 387.84 -227.237C423.68 -124.394 449.28 -22.8309 449.28 58.6755C456.96 278.871 378.027 483.277 333.653 580.146Z" fill="url(#paint9_linear)"/>
<path d="M387.84 -227.237C265.813 -64.2238 109.653 69.3443 0 249.853V-581H233.387C281.173 -487.118 342.613 -356.111 387.84 -227.237Z" fill="url(#paint10_linear)"/>
</g>
<defs>
<linearGradient id="paint0_linear" x1="0" y1="-0.344988" x2="1920" y2="-0.344988" gradientUnits="userSpaceOnUse">
<stop stop-color="#009DFF"/>
<stop offset="0.3907" stop-color="#138FF0"/>
<stop offset="0.4415" stop-color="#2783E5"/>
<stop offset="0.5444" stop-color="#5965C7"/>
<stop offset="0.6192" stop-color="#814DB0"/>
<stop offset="0.7842" stop-color="#E60074"/>
</linearGradient>
<linearGradient id="paint1_linear" x1="0" y1="0.0556751" x2="1199.61" y2="0.0556751" gradientUnits="userSpaceOnUse">
<stop stop-color="#42AEEA"/>
<stop offset="0.291" stop-color="#57A3EF"/>
<stop offset="0.4031" stop-color="#4EB0EB"/>
<stop offset="0.6093" stop-color="#3FC3E4"/>
<stop offset="1" stop-color="#13EDD3"/>
</linearGradient>
<linearGradient id="paint2_linear" x1="572.33" y1="0.0556477" x2="1920" y2="0.0556477" gradientUnits="userSpaceOnUse">
<stop stop-color="#E40074"/>
<stop offset="0.291" stop-color="#CA1880"/>
<stop offset="0.3037" stop-color="#C61B83"/>
<stop offset="0.4647" stop-color="#933FA2"/>
<stop offset="0.544" stop-color="#804DAE"/>
<stop offset="0.5452" stop-color="#7F4DAE"/>
<stop offset="0.6" stop-color="#5E61C2"/>
<stop offset="0.6584" stop-color="#4371D2"/>
<stop offset="0.7219" stop-color="#2E7DDE"/>
<stop offset="0.7924" stop-color="#1F86E7"/>
<stop offset="0.875" stop-color="#168BEC"/>
<stop offset="1" stop-color="#138DEE"/>
</linearGradient>
<linearGradient id="paint3_linear" x1="1079.75" y1="333.362" x2="1824.14" y2="-494.424" gradientUnits="userSpaceOnUse">
<stop stop-color="#E40074"/>
<stop offset="0.291" stop-color="#CA1880"/>
<stop offset="0.3037" stop-color="#C61B83"/>
<stop offset="0.4647" stop-color="#933FA2"/>
<stop offset="0.544" stop-color="#804DAE"/>
</linearGradient>
<linearGradient id="paint4_linear" x1="940.118" y1="193.308" x2="1243.31" y2="193.308" gradientUnits="userSpaceOnUse">
<stop stop-color="#3FE7FF"/>
<stop offset="0.1671" stop-color="#46D4FA"/>
<stop offset="0.5064" stop-color="#57A1ED"/>
<stop offset="0.508" stop-color="#57A1ED"/>
<stop offset="1" stop-color="#787EFF"/>
</linearGradient>
<linearGradient id="paint5_linear" x1="618.993" y1="0.0554219" x2="1395.08" y2="0.0554219" gradientUnits="userSpaceOnUse">
<stop stop-color="#3FE7FF"/>
<stop offset="0.144" stop-color="#46D4FA"/>
<stop offset="0.4364" stop-color="#57A1ED"/>
<stop offset="0.4378" stop-color="#57A1ED"/>
<stop offset="0.4535" stop-color="#4E9EED"/>
<stop offset="0.5015" stop-color="#3898ED"/>
<stop offset="0.5582" stop-color="#2793EE"/>
<stop offset="0.6284" stop-color="#1C90EE"/>
<stop offset="0.7268" stop-color="#158EEE"/>
<stop offset="1" stop-color="#138DEE"/>
</linearGradient>
<linearGradient id="paint6_linear" x1="1459.97" y1="526.883" x2="1762.33" y2="-64.9006" gradientUnits="userSpaceOnUse">
<stop stop-color="#3FE7FF"/>
<stop offset="0.1671" stop-color="#46D4FA"/>
<stop offset="0.5064" stop-color="#57A1ED"/>
<stop offset="0.508" stop-color="#57A1ED"/>
<stop offset="1" stop-color="#787EFF"/>
</linearGradient>
<linearGradient id="paint7_linear" x1="1784.88" y1="-49.2596" x2="1920" y2="-49.2596" gradientUnits="userSpaceOnUse">
<stop stop-color="#6C88FF"/>
<stop offset="0.291" stop-color="#57A3EF"/>
<stop offset="0.4031" stop-color="#4EB0EB"/>
<stop offset="0.6093" stop-color="#3FC3E4"/>
<stop offset="1" stop-color="#13EDD3"/>
</linearGradient>
<linearGradient id="paint8_linear" x1="1531.93" y1="256.548" x2="1920" y2="256.548" gradientUnits="userSpaceOnUse">
<stop stop-color="#3FE7FF"/>
<stop offset="0.1671" stop-color="#46D4FA"/>
<stop offset="0.5064" stop-color="#57A1ED"/>
<stop offset="0.508" stop-color="#57A1ED"/>
<stop offset="1" stop-color="#787EFF"/>
</linearGradient>
<linearGradient id="paint9_linear" x1="69.9063" y1="371.972" x2="879.135" y2="-171.615" gradientUnits="userSpaceOnUse">
<stop stop-color="#E40074"/>
<stop offset="0.2102" stop-color="#C91A81"/>
<stop offset="0.2361" stop-color="#C12086"/>
<stop offset="0.3446" stop-color="#A53498"/>
<stop offset="0.4531" stop-color="#9043A5"/>
<stop offset="0.5607" stop-color="#844CAD"/>
<stop offset="0.6664" stop-color="#804FB0"/>
<stop offset="0.7738" stop-color="#5965C6"/>
<stop offset="0.9253" stop-color="#2782E3"/>
<stop offset="1" stop-color="#138DEE"/>
</linearGradient>
<linearGradient id="paint10_linear" x1="-304.617" y1="149.27" x2="268.507" y2="-442.873" gradientUnits="userSpaceOnUse">
<stop stop-color="#E40074"/>
<stop offset="0.2924" stop-color="#C91A81"/>
<stop offset="0.3136" stop-color="#C12086"/>
<stop offset="0.4026" stop-color="#A53498"/>
<stop offset="0.4915" stop-color="#9043A5"/>
<stop offset="0.5798" stop-color="#844CAD"/>
<stop offset="0.6664" stop-color="#804FB0"/>
<stop offset="0.7738" stop-color="#5965C6"/>
<stop offset="0.9253" stop-color="#2782E3"/>
<stop offset="1" stop-color="#138DEE"/>
</linearGradient>
</defs>
</svg>
