<svg width="126" height="59" viewBox="0 0 126 59" fill="none" xmlns="http://www.w3.org/2000/svg">
<g clip-path="url(#clip0)">
<path d="M40.7447 0.396484L33.298 27.2104H23.1897L20.7829 12.8832C20.4998 11.2693 20.3865 9.31559 20.3865 6.99379C20.3865 9.31559 20.2449 11.2976 19.9901 12.8832L17.5267 27.2104H7.41843L0 0.396484H9.06067L11.9771 13.5345C12.4301 15.6014 12.6283 17.3569 12.6 18.8576C12.7699 16.2243 13.138 13.1381 13.676 9.62705C14.1856 6.54075 14.6953 3.48278 15.2049 0.396484H25.5115L27.6634 13.5345C27.7483 14.7237 27.9182 16.5075 28.1447 18.8576V18.2913C28.1164 16.9888 28.3146 15.3749 28.7393 13.5345L31.684 0.396484H40.7447Z" fill="white"/>
<path d="M50.4 27.2387H41.4243V0.396484H50.4V27.2387Z" fill="white"/>
<path d="M75.8266 18.0647C75.8266 18.9425 75.685 19.8769 75.4302 20.8679C74.7223 23.5011 73.2216 25.3416 70.9565 26.4175C69.1726 27.267 66.7376 27.6917 63.6513 27.6917C59.9704 27.6917 57.0823 26.9838 54.9304 25.5681C52.4104 23.8975 51.1646 21.3209 51.1646 17.8665H59.7722C59.7439 17.9798 59.7439 18.0647 59.7439 18.178C59.7439 20.3582 61.0463 21.4625 63.6513 21.4625C65.9731 21.4625 67.1623 20.7829 67.1623 19.4238C67.1623 18.716 66.4827 18.1214 65.1236 17.725C63.9911 17.3852 62.2639 16.8755 59.9421 16.196C57.4787 15.4881 55.7515 14.7236 54.7322 13.9591C53.1749 12.7699 52.3821 11.1277 52.3821 9.03237C52.3821 5.88945 53.4864 3.53934 55.6666 2.03866C57.5353 0.736191 60.112 0.0566406 63.4531 0.0566406C66.596 0.0566406 69.2576 0.651247 71.3812 1.81215C74.0144 3.28451 75.3169 5.46473 75.3169 8.40945C75.3169 8.6926 75.3169 8.94743 75.2886 9.20226H66.9075V8.8908C66.9641 7.13529 65.8881 6.25754 63.7362 6.25754C63.1416 6.25754 62.6037 6.3708 62.094 6.62563C61.4994 6.93709 61.1879 7.39012 61.1879 7.95642C61.1879 8.55102 61.8675 9.089 63.2266 9.57035C64.1326 9.85349 65.067 10.1083 66.0297 10.3632C66.3412 10.4764 66.8225 10.618 67.4454 10.8162C70.2486 11.6656 72.1457 12.4018 73.1084 13.053C74.9205 14.1573 75.8266 15.8562 75.8266 18.0647Z" fill="white"/>
<path d="M100.687 18.0647C100.687 18.9425 100.545 19.8769 100.291 20.8679C99.5826 23.5011 98.082 25.3416 95.8168 26.4175C94.033 27.267 91.5979 27.6917 88.5116 27.6917C84.8307 27.6917 81.9426 26.9838 79.7907 25.5681C77.2707 23.8975 76.0249 21.3209 76.0249 17.8665H84.6325C84.6042 17.9798 84.6042 18.0647 84.6042 18.178C84.6042 20.3582 85.9067 21.4625 88.5116 21.4625C90.8334 21.4625 92.0226 20.7829 92.0226 19.4238C92.0226 18.716 91.3431 18.1214 89.984 17.725C88.8514 17.3852 87.1242 16.8755 84.8024 16.196C82.3391 15.4881 80.6119 14.7236 79.5925 13.9591C78.0352 12.7699 77.2424 11.1277 77.2424 9.03237C77.2424 5.88945 78.3467 3.53934 80.5269 2.03866C82.3957 0.736191 84.9723 0.0566406 88.3134 0.0566406C91.4564 0.0566406 94.1179 0.651247 96.2415 1.81215C98.8748 3.28451 100.177 5.46473 100.177 8.40945C100.177 8.6926 100.177 8.94743 100.149 9.20226H91.7395V8.8908C91.7961 7.13529 90.7202 6.25754 88.5683 6.25754C87.9737 6.25754 87.4357 6.3708 86.926 6.62563C86.3314 6.93709 86.0199 7.39012 86.0199 7.95642C86.0199 8.55102 86.6995 9.089 88.0586 9.57035C88.9647 9.85349 89.899 10.1083 90.8617 10.3632C91.1732 10.4764 91.6546 10.618 92.2775 10.8162C95.0806 11.6656 96.9777 12.4018 97.9404 13.053C99.7525 14.1573 100.687 15.8562 100.687 18.0647Z" fill="white"/>
<path d="M126 27.2387H102.471V0.396484H125.774V7.70165H111.475V10.2217H123.565V16.9322H111.418V19.9902H126V27.2387Z" fill="white"/>
<path d="M26.0776 40.8013C26.0776 43.9442 25.0016 46.351 22.8214 48.0498C20.8394 49.5788 18.2344 50.3433 15.0066 50.3433H10.7028V58.413H1.61377V31.231H15.2897C18.5742 31.231 21.1509 31.9955 23.0196 33.5244C25.0583 35.195 26.0776 37.6301 26.0776 40.8013ZM17.5266 40.9145C17.5266 38.9325 16.394 37.9415 14.1005 37.9415H10.7028V43.8876H14.1855C16.4223 43.8876 17.5266 42.8966 17.5266 40.9145Z" fill="white"/>
<path d="M55.61 58.413H46.521C46.1529 57.337 45.9264 56.1761 45.8415 54.9869C45.6716 52.6934 45.5017 51.3626 45.3884 50.9946C44.9354 49.7487 43.8878 49.1541 42.2172 49.1541H38.7345V58.4413H29.6738V31.2593H46.3511C51.9291 31.2593 54.7323 33.8076 54.7323 38.8759C54.7323 42.5002 52.8635 44.6804 49.1543 45.4166H49.4657C49.7489 45.3883 50.0887 45.4166 50.5134 45.5298C52.3255 45.9262 53.5147 46.9739 54.1093 48.6728C54.3925 49.5222 54.5624 51.2211 54.6473 53.7411C54.6756 54.9869 54.9871 56.5725 55.61 58.413ZM45.8132 40.6314C45.8132 38.9608 44.7372 38.1397 42.6136 38.1397H38.7345V43.0098H42.1606C43.3215 43.0098 44.1426 42.8966 44.6523 42.6701C45.4167 42.3586 45.8132 41.679 45.8132 40.6314Z" fill="white"/>
<path d="M68.1813 58.413H59.0923V31.231H68.1813V58.413Z" fill="white"/>
<path d="M99.271 58.413H89.3892L82.3955 45.4732C82.2256 45.1334 81.3479 42.9815 79.7906 38.9325C80.9231 42.217 81.4894 44.5954 81.4894 46.0678V58.413H72.6836V31.231H82.5654C84.2643 34.4022 85.9915 37.5734 87.747 40.7163C89.5874 44.3123 90.9465 47.6251 91.8243 50.5981C90.9182 47.7101 90.4652 45.4449 90.4652 43.8026V31.231H99.271V58.413Z" fill="white"/>
<path d="M126 38.5644H118.836V58.413H109.747V38.5644H102.47V31.231H126V38.5644Z" fill="white"/>
</g>
<defs>
<clipPath id="clip0">
<rect width="126" height="58.413" fill="white"/>
</clipPath>
</defs>
</svg>
