<svg width="127" height="60" viewBox="0 0 127 60" fill="none" xmlns="http://www.w3.org/2000/svg">
<g clip-path="url(#clip0)">
<mask id="mask0" mask-type="alpha" maskUnits="userSpaceOnUse" x="0" y="0" width="128" height="60">
<path d="M41.6137 1.04565L34.1555 28.0496H24.0317L21.6212 13.6209C21.3377 11.9955 21.2242 10.028 21.2242 7.68972C21.2242 10.028 21.0824 12.024 20.8272 13.6209L18.3601 28.0496H8.23622L0.806396 1.04565H9.88099L12.8019 14.2768C13.2556 16.3584 13.4541 18.1263 13.4258 19.6376C13.5959 16.9857 13.9646 13.8775 14.5034 10.3416C15.0138 7.23347 15.5243 4.15382 16.0347 1.04565H26.357L28.5123 14.2768C28.5973 15.4744 28.7675 17.2709 28.9944 19.6376V19.0673C28.966 17.7556 29.1645 16.1302 29.5899 14.2768L32.5391 1.04565H41.6137Z" fill="white"/>
<path d="M51.2837 28.0782H42.2942V1.04565H51.2837V28.0782Z" fill="white"/>
<path d="M76.7492 18.8396C76.7492 19.7236 76.6074 20.6646 76.3522 21.6626C75.6432 24.3145 74.1403 26.168 71.8716 27.2516C70.0851 28.1071 67.6463 28.5348 64.5552 28.5348C60.8687 28.5348 57.9762 27.8219 55.8209 26.3961C53.2971 24.7137 52.0493 22.1188 52.0493 18.64H60.6702C60.6418 18.754 60.6418 18.8396 60.6418 18.9536C60.6418 21.1493 61.9463 22.2614 64.5552 22.2614C66.8806 22.2614 68.0716 21.5771 68.0716 20.2083C68.0716 19.4954 67.391 18.8966 66.0299 18.4974C64.8955 18.1552 63.1657 17.6419 60.8403 16.9576C58.3732 16.2447 56.6433 15.4748 55.6224 14.7049C54.0627 13.5072 53.2687 11.8533 53.2687 9.74321C53.2687 6.57801 54.3747 4.21124 56.5583 2.69993C58.4299 1.38822 61.0105 0.703857 64.3567 0.703857C67.5045 0.703857 70.1701 1.30268 72.297 2.47181C74.9343 3.9546 76.2388 6.15028 76.2388 9.11587C76.2388 9.40102 76.2388 9.65766 76.2104 9.9143H67.8164V9.60063C67.8731 7.83268 66.7955 6.94871 64.6403 6.94871C64.0448 6.94871 63.506 7.06277 62.9955 7.31941C62.4 7.63308 62.0881 8.08932 62.0881 8.65963C62.0881 9.25845 62.7687 9.80024 64.1299 10.285C65.0373 10.5702 65.9731 10.8268 66.9373 11.0834C67.2492 11.1975 67.7313 11.3401 68.3552 11.5397C71.1627 12.3951 73.0627 13.1365 74.0268 13.7924C75.8417 14.9045 76.7492 16.6154 76.7492 18.8396Z" fill="white"/>
<path d="M101.648 18.8396C101.648 19.7236 101.506 20.6646 101.251 21.6626C100.542 24.3145 99.0387 26.168 96.7701 27.2516C94.9835 28.1071 92.5447 28.5348 89.4537 28.5348C85.7671 28.5348 82.8746 27.8219 80.7194 26.3961C78.1955 24.7137 76.9478 22.1188 76.9478 18.64H85.5686C85.5403 18.754 85.5403 18.8396 85.5403 18.9536C85.5403 21.1493 86.8447 22.2614 89.4537 22.2614C91.779 22.2614 92.9701 21.5771 92.9701 20.2083C92.9701 19.4954 92.2895 18.8966 90.9283 18.4974C89.794 18.1552 88.0641 17.6419 85.7388 16.9576C83.2716 16.2447 81.5418 15.4748 80.5209 14.7049C78.9612 13.5072 78.1671 11.8533 78.1671 9.74321C78.1671 6.57801 79.2731 4.21124 81.4567 2.69993C83.3283 1.38822 85.9089 0.703857 89.2552 0.703857C92.4029 0.703857 95.0686 1.30268 97.1954 2.47181C99.8327 3.9546 101.137 6.15028 101.137 9.11587C101.137 9.40102 101.137 9.65766 101.109 9.9143H92.6865V9.60063C92.7432 7.83268 91.6656 6.94871 89.5104 6.94871C88.9149 6.94871 88.3761 7.06277 87.8656 7.31941C87.2701 7.63308 86.9582 8.08932 86.9582 8.65963C86.9582 9.25845 87.6388 9.80024 88.9999 10.285C89.9074 10.5702 90.8432 10.8268 91.8074 11.0834C92.1193 11.1975 92.6014 11.3401 93.2253 11.5397C96.0327 12.3951 97.9327 13.1365 98.8969 13.7924C100.712 14.9045 101.648 16.6154 101.648 18.8396Z" fill="white"/>
<path d="M127 28.0782H103.435V1.04565H126.773V8.4026H112.452V10.9405H124.561V17.6986H112.396V20.7782H127V28.0782Z" fill="white"/>
<path d="M26.9242 41.7375C26.9242 44.9027 25.8466 47.3265 23.6631 49.0375C21.678 50.5773 19.0691 51.3472 15.8362 51.3472H11.5258V59.4741H2.42285V32.0994H16.1198C19.4094 32.0994 21.9899 32.8693 23.8616 34.4091C25.9034 36.0915 26.9242 38.5438 26.9242 41.7375ZM18.3601 41.8516C18.3601 39.8555 17.2258 38.8575 14.9288 38.8575H11.5258V44.8457H15.0138C17.2541 44.8457 18.3601 43.8477 18.3601 41.8516Z" fill="white"/>
<path d="M56.5017 59.4734H47.3987C47.0301 58.3898 46.8032 57.2207 46.7181 56.023C46.548 53.7133 46.3778 52.3731 46.2644 52.0024C45.8107 50.7477 44.7614 50.1489 43.0883 50.1489H39.6002V59.5019H30.5256V32.1272H47.2286C52.8151 32.1272 55.6226 34.6936 55.6226 39.7978C55.6226 43.4478 53.7509 45.6434 50.036 46.3848H50.3479C50.6315 46.3563 50.9718 46.3848 51.3972 46.4989C53.2121 46.8981 54.4032 47.9532 54.9987 49.6641C55.2823 50.5196 55.4524 52.2305 55.5375 54.7683C55.5658 56.023 55.8778 57.6199 56.5017 59.4734ZM46.6898 41.5658C46.6898 39.8834 45.6121 39.0564 43.4853 39.0564H39.6002V43.961H43.0316C44.1942 43.961 45.0166 43.847 45.5271 43.6189C46.2927 43.3052 46.6898 42.6208 46.6898 41.5658Z" fill="white"/>
<path d="M69.0927 59.4738H59.9897V32.0991H69.0927V59.4738Z" fill="white"/>
<path d="M100.23 59.4738H90.3331L83.3286 46.4423C83.1585 46.1001 82.2794 43.933 80.7197 39.8553C81.854 43.1631 82.4212 45.5583 82.4212 47.0411V59.4738H73.6018V32.0991H83.4988C85.2003 35.2928 86.9301 38.4865 88.6883 41.6517C90.5316 45.2732 91.8928 48.6095 92.7719 51.6036C91.8644 48.695 91.4107 46.4138 91.4107 44.7599V32.0991H100.23V59.4738Z" fill="white"/>
<path d="M127 39.4846H119.826V59.4738H110.723V39.4846H103.435V32.0991H127V39.4846Z" fill="white"/>
</mask>
<g mask="url(#mask0)">
<path d="M127.851 14.9035C124.504 18.8672 121.527 22.232 118.861 25.2831C118.89 25.3401 118.918 25.3686 118.975 25.4257C121.697 29.5034 124.731 33.8092 127.851 38.0865V68.826H0.239258V-8.76416H15.7511C18.8989 -2.4908 22.9825 6.2634 25.9884 14.875C26.3854 14.3332 26.7824 13.82 27.1511 13.2782C33.163 3.8396 35.6018 -3.57438 36.5093 -8.76416H127.822V14.9035H127.851Z" fill="url(#paint0_linear)"/>
<path d="M62.7972 49.7778C62.4286 54.939 63.3927 59.7581 64.6122 63.6077C61.6629 66.0885 58.9972 67.7424 56.8987 68.826C56.8704 68.8545 56.842 68.8545 56.7853 68.883C56.757 68.8545 56.757 68.8545 56.7286 68.826H0.239258V-8.76416H56.9838C58.1181 -7.25285 59.6778 -5.22826 61.4077 -2.94704C65.5763 2.55642 70.8793 9.51415 74.3673 14.1907C75.927 16.2438 77.1181 17.8691 77.7419 18.6961C78.4509 19.6656 79.2166 20.8918 79.9539 22.3175C76.9763 25.7964 74.2823 28.5053 72.9778 30.1592C70.5957 32.8682 63.7898 39.1986 62.7972 49.7778Z" fill="url(#paint1_linear)"/>
<path d="M92.7719 -8.7644H65.2362C64.4705 -7.19606 63.2795 -5.22851 61.4078 -2.94728C58.9407 0.103855 55.2541 3.75381 49.781 7.8315C32.3691 20.8345 39.4019 36.0902 41.1885 43.219C41.2169 43.276 41.2169 43.3331 41.2452 43.3901C41.3019 43.5327 41.3303 43.6752 41.387 43.8178C43.9392 51.4314 48.6467 61.6399 56.7571 68.8543C56.7855 68.8828 56.7855 68.8828 56.8138 68.9113C56.8422 68.8828 56.8705 68.8828 56.9272 68.8543H66.6824C66.0302 67.4285 65.2929 65.6605 64.6123 63.6359C63.3645 59.7864 62.4287 54.9673 62.7974 49.806C63.7615 39.1983 70.5958 32.8679 72.9779 30.216C74.2824 28.5621 76.9764 25.8532 79.954 22.3743C86.4197 14.8178 94.2465 3.61124 92.7719 -8.7644ZM127.851 -8.7644H104.654C100.23 -3.85977 95.0405 3.38311 93.9346 11.2248C91.9211 25.4825 98.7838 43.9034 96.7704 54.5966C95.8346 59.6153 93.7361 64.6625 91.0988 68.8257H127.851V15.217C124.561 19.095 121.584 22.4313 118.975 25.4254C118.946 25.3684 118.918 25.3399 118.861 25.2829C121.527 22.2317 124.505 18.8669 127.851 14.9033V-8.7644Z" fill="url(#paint2_linear)"/>
<path d="M96.7704 54.5966C95.8346 59.6153 93.7361 64.6625 91.0988 68.8257H66.6824C66.0302 67.3999 65.2929 65.632 64.6123 63.6074C69.4332 59.5868 75.0197 53.456 80.0958 44.1315C82.6481 39.1698 83.1018 34.5218 82.563 30.4726V30.4441C82.2227 27.8778 81.457 25.568 80.5496 23.5719C80.3511 23.1442 80.1525 22.7165 79.954 22.3173C86.4197 14.8177 94.2465 3.61123 92.7719 -8.7644H104.654C100.23 -3.85977 95.0406 3.38311 93.9346 11.2248C91.9212 25.4825 98.7838 43.9033 96.7704 54.5966Z" fill="url(#paint3_linear)"/>
<path d="M80.2658 45.2152C75.1897 54.5112 69.4614 59.6155 64.6405 63.6076C63.3927 59.758 62.4569 54.9389 62.8256 49.7777C63.7898 39.17 70.6241 32.8396 73.0061 30.1877C74.3106 28.5338 77.0046 25.8248 79.9822 22.3459C82.5912 27.4502 84.7747 36.404 80.2658 45.2152Z" fill="url(#paint4_linear)"/>
<path d="M36.5377 -8.7644C35.6303 -3.57462 33.1915 3.83936 27.1795 13.2779C26.7825 13.8197 26.4139 14.3615 26.0169 14.8748C23.0109 6.26316 18.9273 -2.49104 15.7512 -8.7644H36.5377Z" fill="url(#paint5_linear)"/>
<path d="M56.757 68.8265H30.0437C30.2422 61.8402 31.8019 53.8845 36.9347 48.1529C38.1541 46.7841 39.4586 45.501 40.8198 44.2748C40.9899 44.1037 41.1884 43.9611 41.3869 43.79C43.9392 51.4036 48.6183 61.6121 56.757 68.8265Z" fill="url(#paint6_linear)"/>
<path d="M79.9823 22.3462C77.0047 25.8251 74.3107 28.534 73.0062 30.1879C70.6241 32.8684 63.7898 39.1988 62.8257 49.7779C62.457 54.9392 63.4212 59.7583 64.6406 63.6079C65.2928 65.661 66.0301 67.4289 66.7107 68.8262H56.9555C56.9272 68.8547 56.8988 68.8547 56.8421 68.8832C56.8137 68.8547 56.8137 68.8547 56.7854 68.8262C48.6466 61.6118 43.9675 51.4033 41.4153 43.7897C52.5884 34.0375 68.3271 26.8802 73.8286 15.5596C74.0555 15.1033 74.254 14.6471 74.4241 14.1908C77.4584 6.43469 75.2749 -2.74724 73.0629 -8.79248H92.8285C94.2464 3.61167 86.4196 14.8182 79.9823 22.3462Z" fill="url(#paint7_linear)"/>
<path d="M127.851 -8.7644H104.654C100.23 -3.85977 95.0407 3.38311 93.9347 11.2248C91.9213 25.4825 98.7839 43.9033 96.7705 54.5966C95.8347 59.6153 93.7362 64.6625 91.0989 68.8257H127.851V15.217C124.561 19.095 121.584 22.4313 118.975 25.4254C118.947 25.3684 118.918 25.3399 118.861 25.2829C121.527 22.2317 124.505 18.8669 127.851 14.9033V-8.7644Z" fill="url(#paint8_linear)"/>
<path d="M118.861 25.3114C118.889 25.3684 118.918 25.3969 118.975 25.454C118.946 25.4825 118.918 25.5395 118.861 25.568C116.082 21.4333 113.672 17.4982 111.885 14.0764C107.716 5.7784 107.716 -2.17737 108.907 -8.30816C108.936 -8.45074 108.964 -8.62183 108.992 -8.7644H127.851V14.9033C124.504 18.8669 121.527 22.2602 118.861 25.3114Z" fill="url(#paint9_linear)"/>
<path d="M127.851 15.2461V38.315C124.703 34.0092 121.612 29.6748 118.861 25.5686C118.89 25.5401 118.918 25.4831 118.975 25.4546C121.584 22.432 124.561 19.1242 127.851 15.2461Z" fill="url(#paint10_linear)"/>
<path d="M127.851 68.8263H102.13C101.875 63.2373 102.414 56.2225 104.711 47.9245C107.376 39.2844 111.999 33.4673 118.89 25.54C121.64 29.6462 124.731 33.9806 127.879 38.2864V68.8263H127.851Z" fill="url(#paint11_linear)"/>
<path d="M22.4153 68.8264H0.239258V46.7556C7.52729 34.6936 17.9064 25.7683 26.0168 14.8755C28.3989 21.7477 30.1003 28.5343 30.1003 33.9807C30.6108 48.6946 25.3645 62.3535 22.4153 68.8264Z" fill="url(#paint12_linear)"/>
<path d="M26.0168 14.875C17.9064 25.7679 7.52729 34.6932 0.239258 46.7551V-8.76416H15.7511C18.9272 -2.49079 23.0108 6.2634 26.0168 14.875Z" fill="url(#paint13_linear)"/>
</g>
</g>
<defs>
<linearGradient id="paint0_linear" x1="0.239258" y1="30.0364" x2="127.851" y2="30.0364" gradientUnits="userSpaceOnUse">
<stop stop-color="#009DFF"/>
<stop offset="0.3907" stop-color="#138FF0"/>
<stop offset="0.4415" stop-color="#2783E5"/>
<stop offset="0.5444" stop-color="#5965C7"/>
<stop offset="0.6192" stop-color="#814DB0"/>
<stop offset="0.7842" stop-color="#E60074"/>
</linearGradient>
<linearGradient id="paint1_linear" x1="0.239258" y1="30.0632" x2="79.9704" y2="30.0632" gradientUnits="userSpaceOnUse">
<stop stop-color="#42AEEA"/>
<stop offset="0.291" stop-color="#57A3EF"/>
<stop offset="0.4031" stop-color="#4EB0EB"/>
<stop offset="0.6093" stop-color="#3FC3E4"/>
<stop offset="1" stop-color="#13EDD3"/>
</linearGradient>
<linearGradient id="paint2_linear" x1="38.2789" y1="30.0629" x2="127.851" y2="30.0629" gradientUnits="userSpaceOnUse">
<stop stop-color="#E40074"/>
<stop offset="0.291" stop-color="#CA1880"/>
<stop offset="0.3037" stop-color="#C61B83"/>
<stop offset="0.4647" stop-color="#933FA2"/>
<stop offset="0.544" stop-color="#804DAE"/>
<stop offset="0.5452" stop-color="#7F4DAE"/>
<stop offset="0.6" stop-color="#5E61C2"/>
<stop offset="0.6584" stop-color="#4371D2"/>
<stop offset="0.7219" stop-color="#2E7DDE"/>
<stop offset="0.7924" stop-color="#1F86E7"/>
<stop offset="0.875" stop-color="#168BEC"/>
<stop offset="1" stop-color="#138DEE"/>
</linearGradient>
<linearGradient id="paint3_linear" x1="72.0046" y1="52.3351" x2="121.774" y2="-2.71363" gradientUnits="userSpaceOnUse">
<stop stop-color="#E40074"/>
<stop offset="0.291" stop-color="#CA1880"/>
<stop offset="0.3037" stop-color="#C61B83"/>
<stop offset="0.4647" stop-color="#933FA2"/>
<stop offset="0.544" stop-color="#804DAE"/>
</linearGradient>
<linearGradient id="paint4_linear" x1="62.7235" y1="42.9765" x2="82.875" y2="42.9765" gradientUnits="userSpaceOnUse">
<stop stop-color="#3FE7FF"/>
<stop offset="0.1671" stop-color="#46D4FA"/>
<stop offset="0.5064" stop-color="#57A1ED"/>
<stop offset="0.508" stop-color="#57A1ED"/>
<stop offset="1" stop-color="#787EFF"/>
</linearGradient>
<linearGradient id="paint5_linear" x1="15.642" y1="6.77729" x2="32.6868" y2="-5.16365" gradientUnits="userSpaceOnUse">
<stop stop-color="#3FE7FF"/>
<stop offset="0.1671" stop-color="#46D4FA"/>
<stop offset="0.5064" stop-color="#57A1ED"/>
<stop offset="0.508" stop-color="#57A1ED"/>
<stop offset="1" stop-color="#787EFF"/>
</linearGradient>
<linearGradient id="paint6_linear" x1="33.3636" y1="53.509" x2="50.6743" y2="73.962" gradientUnits="userSpaceOnUse">
<stop stop-color="#3FE7FF"/>
<stop offset="0.1671" stop-color="#46D4FA"/>
<stop offset="0.5064" stop-color="#57A1ED"/>
<stop offset="0.508" stop-color="#57A1ED"/>
<stop offset="1" stop-color="#787EFF"/>
</linearGradient>
<linearGradient id="paint7_linear" x1="41.3803" y1="30.0633" x2="92.9621" y2="30.0633" gradientUnits="userSpaceOnUse">
<stop stop-color="#3FE7FF"/>
<stop offset="0.144" stop-color="#46D4FA"/>
<stop offset="0.4364" stop-color="#57A1ED"/>
<stop offset="0.4378" stop-color="#57A1ED"/>
<stop offset="0.4535" stop-color="#4E9EED"/>
<stop offset="0.5015" stop-color="#3898ED"/>
<stop offset="0.5582" stop-color="#2793EE"/>
<stop offset="0.6284" stop-color="#1C90EE"/>
<stop offset="0.7268" stop-color="#158EEE"/>
<stop offset="1" stop-color="#138DEE"/>
</linearGradient>
<linearGradient id="paint8_linear" x1="97.2751" y1="65.2665" x2="117.543" y2="25.8106" gradientUnits="userSpaceOnUse">
<stop stop-color="#3FE7FF"/>
<stop offset="0.1671" stop-color="#46D4FA"/>
<stop offset="0.5064" stop-color="#57A1ED"/>
<stop offset="0.508" stop-color="#57A1ED"/>
<stop offset="1" stop-color="#787EFF"/>
</linearGradient>
<linearGradient id="paint9_linear" x1="90.2713" y1="32.0333" x2="131.313" y2="-8.50871" gradientUnits="userSpaceOnUse">
<stop stop-color="#E40074"/>
<stop offset="0.1784" stop-color="#CA1880"/>
<stop offset="0.1936" stop-color="#C61B83"/>
<stop offset="0.3859" stop-color="#933FA2"/>
<stop offset="0.4807" stop-color="#804DAE"/>
<stop offset="0.6875" stop-color="#5765C6"/>
<stop offset="1" stop-color="#138DEE"/>
</linearGradient>
<linearGradient id="paint10_linear" x1="118.87" y1="26.7682" x2="127.851" y2="26.7682" gradientUnits="userSpaceOnUse">
<stop stop-color="#6C88FF"/>
<stop offset="0.291" stop-color="#57A3EF"/>
<stop offset="0.4031" stop-color="#4EB0EB"/>
<stop offset="0.6093" stop-color="#3FC3E4"/>
<stop offset="1" stop-color="#13EDD3"/>
</linearGradient>
<linearGradient id="paint11_linear" x1="102.058" y1="47.2028" x2="127.851" y2="47.2028" gradientUnits="userSpaceOnUse">
<stop stop-color="#3FE7FF"/>
<stop offset="0.1671" stop-color="#46D4FA"/>
<stop offset="0.5064" stop-color="#57A1ED"/>
<stop offset="0.508" stop-color="#57A1ED"/>
<stop offset="1" stop-color="#787EFF"/>
</linearGradient>
<linearGradient id="paint12_linear" x1="4.88553" y1="54.9158" x2="58.8495" y2="18.8604" gradientUnits="userSpaceOnUse">
<stop stop-color="#E40074"/>
<stop offset="0.2102" stop-color="#C91A81"/>
<stop offset="0.2361" stop-color="#C12086"/>
<stop offset="0.3446" stop-color="#A53498"/>
<stop offset="0.4531" stop-color="#9043A5"/>
<stop offset="0.5607" stop-color="#844CAD"/>
<stop offset="0.6664" stop-color="#804FB0"/>
<stop offset="0.7738" stop-color="#5965C6"/>
<stop offset="0.9253" stop-color="#2782E3"/>
<stop offset="1" stop-color="#138DEE"/>
</linearGradient>
<linearGradient id="paint13_linear" x1="-20.0069" y1="40.034" x2="18.2966" y2="0.671233" gradientUnits="userSpaceOnUse">
<stop stop-color="#E40074"/>
<stop offset="0.2924" stop-color="#C91A81"/>
<stop offset="0.3136" stop-color="#C12086"/>
<stop offset="0.4026" stop-color="#A53498"/>
<stop offset="0.4915" stop-color="#9043A5"/>
<stop offset="0.5798" stop-color="#844CAD"/>
<stop offset="0.6664" stop-color="#804FB0"/>
<stop offset="0.7738" stop-color="#5965C6"/>
<stop offset="0.9253" stop-color="#2782E3"/>
<stop offset="1" stop-color="#138DEE"/>
</linearGradient>
<clipPath id="clip0">
<rect width="126.194" height="58.8271" fill="white" transform="translate(0.806396 0.646484)"/>
</clipPath>
</defs>
</svg>
