<svg width="33" height="40" viewBox="0 0 33 40" fill="none" xmlns="http://www.w3.org/2000/svg">
<g clip-path="url(#clip0)">
<path d="M8.1229 25.7376C8.1229 26.476 7.58359 26.9157 6.7207 26.9157C6.48838 26.9157 6.31415 26.9074 6.1731 26.8743V24.7419C6.28925 24.7087 6.51327 24.6755 6.84516 24.6755C7.66656 24.6755 8.1229 25.0738 8.1229 25.7376Z" fill="white"/>
<path d="M15.4325 26.9902C15.4325 28.716 14.47 29.5291 12.9932 29.5208C12.7857 29.5208 12.5617 29.5208 12.4207 29.4876V24.7666C12.5617 24.7334 12.794 24.7002 13.1591 24.7002C14.5613 24.7002 15.4408 25.4884 15.4325 26.9902Z" fill="white"/>
<path d="M22.5182 0H6.44682C4.09876 0 2.19044 1.90832 2.19044 4.25638V20.0041H1.77559C0.829729 20.0041 0.0581055 20.7675 0.0581055 21.7216V32.1261C0.0581055 32.9807 0.68868 33.6943 1.51009 33.8187C1.59306 33.8353 1.68432 33.8353 1.77559 33.8353H2.19044V35.7436C2.19044 38.0917 4.09876 40 6.44682 40H28.3759C30.7239 40 32.6322 38.0917 32.6322 35.7436V10.0809L22.5182 0ZM10.7862 30.6824V23.5968C11.3835 23.4972 12.1635 23.4474 12.9932 23.4474C14.3622 23.4474 15.25 23.6963 15.9469 24.219C16.6936 24.7749 17.1666 25.6627 17.1666 26.9405C17.1666 28.3178 16.6605 29.2719 15.9635 29.861C15.2002 30.4916 14.0469 30.7903 12.6364 30.7903C11.7901 30.7903 11.1927 30.7405 10.7862 30.6824ZM22.4684 26.4841V27.8117H19.8797V30.7156H18.2452V23.4972H22.6509V24.833H19.8797V26.4841H22.4684ZM9.07697 27.4051C8.52107 27.9278 7.69137 28.1684 6.72892 28.1684C6.51319 28.1684 6.32236 28.1601 6.17302 28.1352V30.7156H4.56339V23.5968C5.06951 23.5138 5.77476 23.4474 6.7704 23.4474C7.77434 23.4474 8.49618 23.6382 8.97741 24.0282C9.43375 24.3933 9.74903 24.9907 9.74903 25.6959C9.74074 26.4012 9.50842 26.9985 9.07697 27.4051ZM28.3759 37.3947H6.44682C5.53414 37.3947 4.79571 36.6563 4.79571 35.7436V33.8353H25.2313C25.4138 33.8353 25.5964 33.8021 25.7623 33.7523C25.7789 33.744 25.8038 33.7357 25.8204 33.7357C26.4758 33.4951 26.9488 32.8646 26.9488 32.1261V21.7216C26.9488 20.7758 26.1771 20.0041 25.2313 20.0041H4.80401V4.25638C4.80401 3.352 5.54244 2.61357 6.45511 2.61357L21.5474 2.59697V8.17258C21.5474 9.7988 22.8666 11.1263 24.5011 11.1263L29.9689 11.1097L30.027 35.7436C30.0187 36.6563 29.2802 37.3947 28.3759 37.3947Z" fill="white"/>
<path d="M19.8796 24.8329V26.484H22.4683V27.8115H19.8796V30.7155H18.2368V23.4971H22.6508V24.8329H19.8796Z" fill="white"/>
<path d="M13.1591 24.7003C12.794 24.7003 12.5617 24.7335 12.4207 24.7666V29.4877C12.5617 29.5208 12.7857 29.5208 12.9932 29.5208C14.47 29.5291 15.4325 28.716 15.4325 26.9902C15.4408 25.4885 14.5613 24.7003 13.1591 24.7003ZM13.1591 24.7003C12.794 24.7003 12.5617 24.7335 12.4207 24.7666V29.4877C12.5617 29.5208 12.7857 29.5208 12.9932 29.5208C14.47 29.5291 15.4325 28.716 15.4325 26.9902C15.4408 25.4885 14.5613 24.7003 13.1591 24.7003ZM25.2811 20.0042H1.6677C0.746733 20.0042 0 20.7509 0 21.6719V32.151C0 33.0222 0.663763 33.7357 1.51006 33.8104C1.55984 33.8187 1.61792 33.8187 1.676 33.8187H25.2894C25.4553 33.8187 25.6212 33.7938 25.7789 33.744C25.7955 33.7357 25.8204 33.7274 25.837 33.7274C26.4924 33.5034 26.9654 32.8811 26.9654 32.151V21.6719C26.9571 20.7509 26.2103 20.0042 25.2811 20.0042ZM9.07695 27.4051C8.52105 27.9278 7.69135 28.1684 6.72889 28.1684C6.51317 28.1684 6.32234 28.1601 6.17299 28.1352V30.7156H4.56337V23.5968C5.06949 23.5138 5.77473 23.4474 6.77038 23.4474C7.77432 23.4474 8.49616 23.6382 8.97739 24.0282C9.43373 24.3933 9.74901 24.9907 9.74901 25.6959C9.74072 26.4012 9.5084 26.9985 9.07695 27.4051ZM15.9635 29.861C15.2002 30.4916 14.0469 30.7903 12.6364 30.7903C11.7901 30.7903 11.1927 30.7405 10.7861 30.6824V23.5968C11.3835 23.4972 12.1635 23.4474 12.9932 23.4474C14.3622 23.4474 15.2499 23.6963 15.9469 24.219C16.6936 24.7749 17.1666 25.6627 17.1666 26.9405C17.1666 28.3178 16.6604 29.2719 15.9635 29.861ZM22.6509 24.833H19.8797V26.4841H22.4684V27.8117H19.8797V30.7156H18.2452V23.4972H22.6509V24.833ZM13.1591 24.7003C12.794 24.7003 12.5617 24.7335 12.4207 24.7666V29.4877C12.5617 29.5208 12.7857 29.5208 12.9932 29.5208C14.47 29.5291 15.4325 28.716 15.4325 26.9902C15.4408 25.4885 14.5613 24.7003 13.1591 24.7003ZM6.85335 24.6754C6.52147 24.6754 6.29745 24.7086 6.18129 24.7418V26.8741C6.32234 26.9073 6.49658 26.9156 6.72889 26.9156C7.60008 26.9156 8.13109 26.4758 8.13109 25.7374C8.1228 25.0736 7.66646 24.6754 6.85335 24.6754Z" fill="#FF1D00"/>
<path d="M8.96895 24.0198C8.48773 23.6381 7.76588 23.439 6.76194 23.439C5.7663 23.439 5.06105 23.5053 4.55493 23.5883V30.7072H6.17285V28.1268C6.3222 28.1434 6.51303 28.16 6.72875 28.16C7.69121 28.16 8.51262 27.9277 9.07682 27.3967C9.50826 26.9901 9.74058 26.3927 9.74058 25.6875C9.74058 24.9905 9.43359 24.3848 8.96895 24.0198ZM6.72046 26.9154C6.48814 26.9154 6.3139 26.9071 6.17285 26.8739V24.7416C6.28901 24.7084 6.51303 24.6752 6.84491 24.6752C7.65802 24.6752 8.12266 25.0735 8.12266 25.7372C8.12266 26.4757 7.59165 26.9154 6.72046 26.9154Z" fill="white"/>
<path d="M15.9469 24.2189C15.2499 23.6962 14.3622 23.4473 12.9931 23.4473C12.1717 23.4473 11.3835 23.497 10.7861 23.5966V30.6823C11.1927 30.7404 11.7901 30.7901 12.6364 30.7901C14.0469 30.7901 15.2085 30.4914 15.9635 29.8609C16.6604 29.2718 17.1666 28.3176 17.1666 26.9403C17.1666 25.6626 16.6936 24.7748 15.9469 24.2189ZM12.9931 29.5124C12.7857 29.5124 12.5617 29.5124 12.4206 29.4792V24.7582C12.5617 24.725 12.794 24.6918 13.1591 24.6918C14.5613 24.6918 15.4408 25.48 15.4325 26.9818C15.4325 28.7159 14.47 29.529 12.9931 29.5124Z" fill="white"/>
</g>
<defs>
<clipPath id="clip0">
<rect width="32.6239" height="40" fill="white"/>
</clipPath>
</defs>
</svg>
